  0
SECTION
  2
HEADER
  9
$ACADVER
  1
AC1015
  9
$ACADMAINTVER
 70
     6
  9
$DWGCODEPAGE
  3
ANSI_1252
  9
$INSBASE
 10
0.0
 20
0.0
 30
0.0
  9
$EXTMIN
 10
-179.0840583919
 20
-141.3849465488
 30
0.0
  9
$EXTMAX
 10
179.0840583919
 20
141.3849465488
 30
0.0
  9
$LIMMIN
 10
0.0
 20
0.0
  9
$LIMMAX
 10
420.0
 20
297.0
  9
$ORTHOMODE
 70
     0
  9
$REGENMODE
 70
     1
  9
$FILLMODE
 70
     1
  9
$QTEXTMODE
 70
     0
  9
$MIRRTEXT
 70
     1
  9
$LTSCALE
 40
1.0
  9
$ATTMODE
 70
     1
  9
$TEXTSIZE
 40
3.5
  9
$TRACEWID
 40
1.0
  9
$TEXTSTYLE
  7
Standard
  9
$CLAYER
  8
0
  9
$CELTYPE
  6
ByLayer
  9
$CECOLOR
 62
   256
  9
$CELTSCALE
 40
1.0
  9
$DISPSILH
 70
     0
  9
$DIMSCALE
 40
1.0
  9
$DIMASZ
 40
3.302
  9
$DIMEXO
 40
1.0
  9
$DIMDLI
 40
3.75
  9
$DIMRND
 40
0.0
  9
$DIMDLE
 40
0.0
  9
$DIMEXE
 40
1.0
  9
$DIMTP
 40
0.0
  9
$DIMTM
 40
0.0
  9
$DIMTXT
 40
3.5
  9
$DIMCEN
 40
2.5
  9
$DIMTSZ
 40
0.0
  9
$DIMTOL
 70
     0
  9
$DIMLIM
 70
     0
  9
$DIMTIH
 70
     1
  9
$DIMTOH
 70
     1
  9
$DIMSE1
 70
     0
  9
$DIMSE2
 70
     0
  9
$DIMTAD
 70
     1
  9
$DIMZIN
 70
     1
  9
$DIMBLK
  1

  9
$DIMASO
 70
     1
  9
$DIMSHO
 70
     1
  9
$DIMPOST
  1

  9
$DIMAPOST
  1

  9
$DIMALT
 70
     0
  9
$DIMALTD
 70
     3
  9
$DIMALTF
 40
0.0393700787
  9
$DIMLFAC
 40
1.0
  9
$DIMTOFL
 70
     1
  9
$DIMTVP
 40
0.0
  9
$DIMTIX
 70
     0
  9
$DIMSOXD
 70
     0
  9
$DIMSAH
 70
     0
  9
$DIMBLK1
  1

  9
$DIMBLK2
  1

  9
$DIMSTYLE
  2
ISO-25
  9
$DIMCLRD
 70
     0
  9
$DIMCLRE
 70
     0
  9
$DIMCLRT
 70
     0
  9
$DIMTFAC
 40
1.0
  9
$DIMGAP
 40
1.524
  9
$DIMJUST
 70
     0
  9
$DIMSD1
 70
     0
  9
$DIMSD2
 70
     0
  9
$DIMTOLJ
 70
     0
  9
$DIMTZIN
 70
     1
  9
$DIMALTZ
 70
     0
  9
$DIMALTTZ
 70
     0
  9
$DIMUPT
 70
     0
  9
$DIMDEC
 70
     2
  9
$DIMTDEC
 70
     2
  9
$DIMALTU
 70
     2
  9
$DIMALTTD
 70
     3
  9
$DIMTXSTY
  7
Standard
  9
$DIMAUNIT
 70
     0
  9
$DIMADEC
 70
     2
  9
$DIMALTRND
 40
0.0
  9
$DIMAZIN
 70
     0
  9
$DIMDSEP
 70
    44
  9
$DIMATFIT
 70
     3
  9
$DIMFRAC
 70
     0
  9
$DIMLDRBLK
  1

  9
$DIMLUNIT
 70
     2
  9
$DIMLWD
 70
    -2
  9
$DIMLWE
 70
    -2
  9
$DIMTMOVE
 70
     0
  9
$LUNITS
 70
     2
  9
$LUPREC
 70
     5
  9
$SKETCHINC
 40
1.0
  9
$FILLETRAD
 40
10.0
  9
$AUNITS
 70
     0
  9
$AUPREC
 70
     2
  9
$MENU
  1
.
  9
$ELEVATION
 40
0.0
  9
$PELEVATION
 40
0.0
  9
$THICKNESS
 40
0.0
  9
$LIMCHECK
 70
     0
  9
$CHAMFERA
 40
0.0
  9
$CHAMFERB
 40
0.0
  9
$CHAMFERC
 40
0.0
  9
$CHAMFERD
 40
0.0
  9
$SKPOLY
 70
     0
  9
$TDCREATE
 40
2459577.955722338
  9
$TDUCREATE
 40
2459577.664055671
  9
$TDUPDATE
 40
2459577.955773796
  9
$TDUUPDATE
 40
2459577.664107129
  9
$TDINDWG
 40
0.0000000116
  9
$TDUSRTIMER
 40
0.0000000116
  9
$USRTIMER
 70
     1
  9
$ANGBASE
 50
0.0
  9
$ANGDIR
 70
     0
  9
$PDMODE
 70
     0
  9
$PDSIZE
 40
-1.0
  9
$PLINEWID
 40
0.0
  9
$SPLFRAME
 70
     0
  9
$SPLINETYPE
 70
     6
  9
$SPLINESEGS
 70
     8
  9
$HANDSEED
  5
4BA
  9
$SURFTAB1
 70
     6
  9
$SURFTAB2
 70
     6
  9
$SURFTYPE
 70
     6
  9
$SURFU
 70
     6
  9
$SURFV
 70
     6
  9
$UCSBASE
  2

  9
$UCSNAME
  2

  9
$UCSORG
 10
0.0
 20
0.0
 30
0.0
  9
$UCSXDIR
 10
1.0
 20
0.0
 30
0.0
  9
$UCSYDIR
 10
0.0
 20
1.0
 30
0.0
  9
$UCSORTHOREF
  2

  9
$UCSORTHOVIEW
 70
     0
  9
$UCSORGTOP
 10
0.0
 20
0.0
 30
0.0
  9
$UCSORGBOTTOM
 10
0.0
 20
0.0
 30
0.0
  9
$UCSORGLEFT
 10
0.0
 20
0.0
 30
0.0
  9
$UCSORGRIGHT
 10
0.0
 20
0.0
 30
0.0
  9
$UCSORGFRONT
 10
0.0
 20
0.0
 30
0.0
  9
$UCSORGBACK
 10
0.0
 20
0.0
 30
0.0
  9
$PUCSBASE
  2

  9
$PUCSNAME
  2

  9
$PUCSORG
 10
0.0
 20
0.0
 30
0.0
  9
$PUCSXDIR
 10
1.0
 20
0.0
 30
0.0
  9
$PUCSYDIR
 10
0.0
 20
1.0
 30
0.0
  9
$PUCSORTHOREF
  2

  9
$PUCSORTHOVIEW
 70
     0
  9
$PUCSORGTOP
 10
0.0
 20
0.0
 30
0.0
  9
$PUCSORGBOTTOM
 10
0.0
 20
0.0
 30
0.0
  9
$PUCSORGLEFT
 10
0.0
 20
0.0
 30
0.0
  9
$PUCSORGRIGHT
 10
0.0
 20
0.0
 30
0.0
  9
$PUCSORGFRONT
 10
0.0
 20
0.0
 30
0.0
  9
$PUCSORGBACK
 10
0.0
 20
0.0
 30
0.0
  9
$USERI1
 70
     0
  9
$USERI2
 70
     0
  9
$USERI3
 70
     0
  9
$USERI4
 70
     0
  9
$USERI5
 70
     0
  9
$USERR1
 40
0.0
  9
$USERR2
 40
0.0
  9
$USERR3
 40
0.0
  9
$USERR4
 40
0.0
  9
$USERR5
 40
0.0
  9
$WORLDVIEW
 70
     1
  9
$SHADEDGE
 70
     3
  9
$SHADEDIF
 70
    70
  9
$TILEMODE
 70
     1
  9
$MAXACTVP
 70
    64
  9
$PINSBASE
 10
0.0
 20
0.0
 30
0.0
  9
$PLIMCHECK
 70
     0
  9
$PEXTMIN
 10
1.0000000000E+20
 20
1.0000000000E+20
 30
1.0000000000E+20
  9
$PEXTMAX
 10
-1.0000000000E+20
 20
-1.0000000000E+20
 30
-1.0000000000E+20
  9
$PLIMMIN
 10
0.0
 20
0.0
  9
$PLIMMAX
 10
420.0
 20
297.0
  9
$UNITMODE
 70
     0
  9
$VISRETAIN
 70
     1
  9
$PLINEGEN
 70
     0
  9
$PSLTSCALE
 70
     1
  9
$TREEDEPTH
 70
  3020
  9
$CMLSTYLE
  2
Standard
  9
$CMLJUST
 70
     0
  9
$CMLSCALE
 40
20.0
  9
$PROXYGRAPHICS
 70
     1
  9
$MEASUREMENT
 70
     1
  9
$CELWEIGHT
370
    -1
  9
$ENDCAPS
280
     0
  9
$JOINSTYLE
280
     0
  9
$LWDISPLAY
290
     1
  9
$INSUNITS
 70
     4
  9
$HYPERLINKBASE
  1

  9
$STYLESHEET
  1

  9
$XEDIT
290
     1
  9
$CEPSNTYPE
380
     0
  9
$PSTYLEMODE
290
     1
  9
$FINGERPRINTGUID
  2
{932dd42e-f9ff-435b-8d06-d7d1b05a8631}
  9
$VERSIONGUID
  2
{FAEB1C32-E019-11D5-929B-00C0DF256EC4}
  9
$EXTNAMES
290
     1
  9
$PSVPSCALE
 40
0.0
  9
$OLESTARTUP
290
     0
  0
ENDSEC
  0
SECTION
  2
CLASSES
  0
CLASS
  1
ACDBDICTIONARYWDFLT
  2
AcDbDictionaryWithDefault
  3
ObjectDBX Classes
 90
        0
280
     0
281
     0
  0
CLASS
  1
VISUALSTYLE
  2
AcDbVisualStyle
  3
ObjectDBX Classes
 90
     4095
280
     0
281
     0
  0
CLASS
  1
MATERIAL
  2
AcDbMaterial
  3
ObjectDBX Classes
 90
     1153
280
     0
281
     0
  0
CLASS
  1
SCALE
  2
AcDbScale
  3
ObjectDBX Classes
 90
     1153
280
     0
281
     0
  0
CLASS
  1
TABLESTYLE
  2
AcDbTableStyle
  3
ObjectDBX Classes
 90
     4095
280
     0
281
     0
  0
CLASS
  1
MLEADERSTYLE
  2
AcDbMLeaderStyle
  3
ACDB_MLEADERSTYLE_CLASS
 90
     4095
280
     0
281
     0
  0
CLASS
  1
SUN
  2
AcDbSun
  3
SCENEOE
 90
     1153
280
     0
281
     0
  0
CLASS
  1
ACDBPLACEHOLDER
  2
AcDbPlaceHolder
  3
ObjectDBX Classes
 90
        0
280
     0
281
     0
  0
CLASS
  1
LAYOUT
  2
AcDbLayout
  3
ObjectDBX Classes
 90
        0
280
     0
281
     0
  0
ENDSEC
  0
SECTION
  2
TABLES
  0
TABLE
  2
VPORT
  5
8
330
0
100
AcDbSymbolTable
 70
     1
  0
VPORT
  5
29
330
8
100
AcDbSymbolTableRecord
100
AcDbViewportTableRecord
  2
*Active
 70
     0
 10
0.0
 20
0.0
 11
1.0
 21
1.0
 12
0.0
 22
0.0
 13
0.0
 23
0.0
 14
10.0
 24
10.0
 15
10.0
 25
10.0
 16
0.0
 26
0.0
 36
1.0
 17
0.0
 27
0.0
 37
0.0
 40
288.4252909596
 41
1.2666416246
 42
50.0
 43
0.0
 44
0.0
 50
0.0
 51
0.0
 71
     0
 72
   100
 73
     1
 74
     3
 75
     0
 76
     0
 77
     0
 78
     0
281
     0
 65
     1
110
0.0
120
0.0
130
0.0
111
1.0
121
0.0
131
0.0
112
0.0
122
1.0
132
0.0
 79
     0
146
0.0
  0
ENDTAB
  0
TABLE
  2
LTYPE
  5
5
330
0
100
AcDbSymbolTable
 70
     6
  0
LTYPE
  5
14
330
5
100
AcDbSymbolTableRecord
100
AcDbLinetypeTableRecord
  2
ByBlock
 70
     0
  3

 72
    65
 73
     0
 40
0.0
  0
LTYPE
  5
15
330
5
100
AcDbSymbolTableRecord
100
AcDbLinetypeTableRecord
  2
ByLayer
 70
     0
  3

 72
    65
 73
     0
 40
0.0
  0
LTYPE
  5
16
330
5
100
AcDbSymbolTableRecord
100
AcDbLinetypeTableRecord
  2
Continuous
 70
     0
  3
Solid line
 72
    65
 73
     0
 40
0.0
  0
LTYPE
  5
6E
330
5
100
AcDbSymbolTableRecord
100
AcDbLinetypeTableRecord
  2
HIDDEN
 70
     0
  3
Hidden __ __ __ __ __ __ __ __ __ __ __ __ __ __
 72
    65
 73
     2
 40
1.905
 49
1.27
 74
     0
 49
-0.635
 74
     0
  0
LTYPE
  5
6F
330
5
100
AcDbSymbolTableRecord
100
AcDbLinetypeTableRecord
  2
PHANTOM
 70
     0
  3
Phantom ______  __  __  ______  __  __  ______
 72
    65
 73
     6
 40
12.7
 49
6.35
 74
     0
 49
-1.27
 74
     0
 49
1.27
 74
     0
 49
-1.27
 74
     0
 49
1.27
 74
     0
 49
-1.27
 74
     0
  0
LTYPE
  5
70
330
5
100
AcDbSymbolTableRecord
100
AcDbLinetypeTableRecord
  2
CENTER
 70
     0
  3
Center ____ _ ____ _ ____ _ ____ _ ____ _ ____
 72
    65
 73
     4
 40
10.16
 49
6.35
 74
     0
 49
-1.27
 74
     0
 49
1.27
 74
     0
 49
-1.27
 74
     0
  0
LTYPE
  5
71
330
5
100
AcDbSymbolTableRecord
100
AcDbLinetypeTableRecord
  2
CENTERX2
 70
     0
  3
Center (2x) ________  __  ________  __  _____
 72
    65
 73
     4
 40
20.32
 49
12.7
 74
     0
 49
-2.54
 74
     0
 49
2.54
 74
     0
 49
-2.54
 74
     0
  0
LTYPE
  5
72
330
5
100
AcDbSymbolTableRecord
100
AcDbLinetypeTableRecord
  2
DOT2
 70
     0
  3
Dot (.5x) ........................................
 72
    65
 73
     2
 40
0.635
 49
0.0
 74
     0
 49
-0.635
 74
     0
  0
ENDTAB
  0
TABLE
  2
LAYER
  5
2
330
0
100
AcDbSymbolTable
 70
     1
  0
LAYER
  5
10
330
2
100
AcDbSymbolTableRecord
100
AcDbLayerTableRecord
  2
0
 70
     0
 62
     7
  6
Continuous
370
    -3
390
F
  0
ENDTAB
  0
TABLE
  2
STYLE
  5
3
330
0
100
AcDbSymbolTable
 70
     1
  0
STYLE
  5
11
330
3
100
AcDbSymbolTableRecord
100
AcDbTextStyleTableRecord
  2
Standard
 70
     0
 40
0.0
 41
1.0
 50
0.0
 71
     0
 42
3.5
  3
txt
  4

  0
ENDTAB
  0
TABLE
  2
VIEW
  5
6
330
0
100
AcDbSymbolTable
 70
     0
  0
ENDTAB
  0
TABLE
  2
UCS
  5
7
330
0
100
AcDbSymbolTable
 70
     0
  0
ENDTAB
  0
TABLE
  2
APPID
  5
9
330
0
100
AcDbSymbolTable
 70
     1
  0
APPID
  5
12
330
9
100
AcDbSymbolTableRecord
100
AcDbRegAppTableRecord
  2
ACAD
 70
     0
  0
ENDTAB
  0
TABLE
  2
DIMSTYLE
  5
A
330
0
100
AcDbSymbolTable
 70
     1
100
AcDbDimStyleTable
  0
DIMSTYLE
105
27
330
A
100
AcDbSymbolTableRecord
100
AcDbDimStyleTableRecord
  2
ISO-25
 70
     0
 41
2.5
 42
0.625
 43
3.75
 44
1.25
 73
     0
 74
     0
 77
     1
 78
     8
140
2.5
141
2.5
143
0.0393700787
147
0.625
171
     3
172
     1
178
     0
271
     2
272
     2
274
     3
278
    44
283
     0
284
     8
340
11
  0
ENDTAB
  0
TABLE
  2
BLOCK_RECORD
  5
1
330
0
100
AcDbSymbolTable
 70
     1
  0
BLOCK_RECORD
  5
1F
330
1
100
AcDbSymbolTableRecord
100
AcDbBlockTableRecord
  2
*Model_Space
340
22
  0
BLOCK_RECORD
  5
1B
330
1
100
AcDbSymbolTableRecord
100
AcDbBlockTableRecord
  2
*Paper_Space
340
1E
  0
BLOCK_RECORD
  5
23
330
1
100
AcDbSymbolTableRecord
100
AcDbBlockTableRecord
  2
*Paper_Space0
340
26
  0
ENDTAB
  0
ENDSEC
  0
SECTION
  2
BLOCKS
  0
BLOCK
  5
20
330
1F
100
AcDbEntity
  8
0
100
AcDbBlockBegin
  2
*Model_Space
 70
     0
 10
0.0
 20
0.0
 30
0.0
  3
*Model_Space
  1

  0
ENDBLK
  5
21
330
1F
100
AcDbEntity
  8
0
100
AcDbBlockEnd
  0
BLOCK
  5
1C
330
1B
100
AcDbEntity
 67
     1
  8
0
100
AcDbBlockBegin
  2
*Paper_Space
 70
     0
 10
0.0
 20
0.0
 30
0.0
  3
*Paper_Space
  1

  0
ENDBLK
  5
1D
330
1B
100
AcDbEntity
 67
     1
  8
0
100
AcDbBlockEnd
  0
BLOCK
  5
24
330
23
100
AcDbEntity
  8
0
100
AcDbBlockBegin
  2
*Paper_Space0
 70
     0
 10
0.0
 20
0.0
 30
0.0
  3
*Paper_Space0
  1

  0
ENDBLK
  5
25
330
23
100
AcDbEntity
  8
0
100
AcDbBlockEnd
  0
ENDSEC
  0
SECTION
  2
ENTITIES
  0
CIRCLE
  5
73
330
1F
100
AcDbEntity
  8
0
  6
Continuous
 62
     7
370
    25
100
AcDbCircle
 10
-30.0
 20
-51.9615242271
 30
0.0
 40
4.250000000000007
  0
CIRCLE
  5
74
330
1F
100
AcDbEntity
  8
0
  6
Continuous
 62
     7
370
    25
100
AcDbCircle
 10
30.0
 20
-51.9615242271
 30
0.0
 40
4.250000000000007
  0
CIRCLE
  5
81
330
1F
100
AcDbEntity
  8
0
  6
Continuous
 62
     7
370
    25
100
AcDbCircle
 10
-30.0
 20
51.9615242271
 30
0.0
 40
4.250000000000007
  0
CIRCLE
  5
82
330
1F
100
AcDbEntity
  8
0
  6
Continuous
 62
     7
370
    25
100
AcDbCircle
 10
30.0
 20
51.9615242271
 30
0.0
 40
4.250000000000007
  0
CIRCLE
  5
8F
330
1F
100
AcDbEntity
  8
0
  6
Continuous
 62
     7
370
    25
100
AcDbCircle
 10
-60.0
 20
0.0
 30
0.0
 40
4.249999999999992
  0
CIRCLE
  5
94
330
1F
100
AcDbEntity
  8
0
  6
Continuous
 62
     7
370
    25
100
AcDbCircle
 10
60.0
 20
0.0
 30
0.0
 40
4.249999999999992
  0
CIRCLE
  5
298
330
1F
100
AcDbEntity
  8
0
  6
Continuous
 62
     7
370
    25
100
AcDbCircle
 10
0.0
 20
0.0
 30
0.0
 40
25.00000000000001
  0
LINE
  5
29A
330
1F
100
AcDbEntity
  8
0
  6
Continuous
 62
     7
370
    25
100
AcDbLine
 10
125.5
 20
-93.3849465488
 30
0.0
 11
150.5
 21
-93.3849465488
 31
0.0
  0
LINE
  5
29B
330
1F
100
AcDbEntity
  8
0
  6
Continuous
 62
     7
370
    25
100
AcDbLine
 10
150.5
 20
-103.3849465488
 30
0.0
 11
125.5
 21
-103.3849465488
 31
0.0
  0
LINE
  5
29C
330
1F
100
AcDbEntity
  8
0
  6
Continuous
 62
     7
370
    25
100
AcDbLine
 10
-150.5
 20
-93.3849465488
 30
0.0
 11
-125.5
 21
-93.3849465488
 31
0.0
  0
LINE
  5
29D
330
1F
100
AcDbEntity
  8
0
  6
Continuous
 62
     7
370
    25
100
AcDbLine
 10
-125.5
 20
-103.3849465488
 30
0.0
 11
-150.5
 21
-103.3849465488
 31
0.0
  0
LINE
  5
29E
330
1F
100
AcDbEntity
  8
0
  6
Continuous
 62
     7
370
    25
100
AcDbLine
 10
-19.5
 20
-93.3849465488
 30
0.0
 11
5.5
 21
-93.3849465488
 31
0.0
  0
LINE
  5
29F
330
1F
100
AcDbEntity
  8
0
  6
Continuous
 62
     7
370
    25
100
AcDbLine
 10
5.5
 20
-103.3849465488
 30
0.0
 11
-19.5
 21
-103.3849465488
 31
0.0
  0
LINE
  5
2A0
330
1F
100
AcDbEntity
  8
0
  6
Continuous
 62
     7
370
    25
100
AcDbLine
 10
150.5
 20
103.3849465488
 30
0.0
 11
125.5
 21
103.3849465488
 31
0.0
  0
LINE
  5
2A1
330
1F
100
AcDbEntity
  8
0
  6
Continuous
 62
     7
370
    25
100
AcDbLine
 10
125.5
 20
93.3849465488
 30
0.0
 11
150.5
 21
93.3849465488
 31
0.0
  0
LINE
  5
2A2
330
1F
100
AcDbEntity
  8
0
  6
Continuous
 62
     7
370
    25
100
AcDbLine
 10
-125.5
 20
103.3849465488
 30
0.0
 11
-150.5
 21
103.3849465488
 31
0.0
  0
LINE
  5
2A3
330
1F
100
AcDbEntity
  8
0
  6
Continuous
 62
     7
370
    25
100
AcDbLine
 10
-150.5
 20
93.3849465488
 30
0.0
 11
-125.5
 21
93.3849465488
 31
0.0
  0
LINE
  5
2A4
330
1F
100
AcDbEntity
  8
0
  6
Continuous
 62
     7
370
    25
100
AcDbLine
 10
5.5
 20
103.3849465488
 30
0.0
 11
-19.5
 21
103.3849465488
 31
0.0
  0
LINE
  5
2A5
330
1F
100
AcDbEntity
  8
0
  6
Continuous
 62
     7
370
    25
100
AcDbLine
 10
-19.5
 20
93.3849465488
 30
0.0
 11
5.5
 21
93.3849465488
 31
0.0
  0
LINE
  5
2A6
330
1F
100
AcDbEntity
  8
0
  6
Continuous
 62
     7
370
    25
100
AcDbLine
 10
150.5
 20
5.0
 30
0.0
 11
125.5
 21
5.0
 31
0.0
  0
LINE
  5
2A7
330
1F
100
AcDbEntity
  8
0
  6
Continuous
 62
     7
370
    25
100
AcDbLine
 10
150.5
 20
-5.0
 30
0.0
 11
125.5
 21
-5.0
 31
0.0
  0
LINE
  5
2A8
330
1F
100
AcDbEntity
  8
0
  6
Continuous
 62
     7
370
    25
100
AcDbLine
 10
-125.5
 20
5.0
 30
0.0
 11
-150.5
 21
5.0
 31
0.0
  0
LINE
  5
2A9
330
1F
100
AcDbEntity
  8
0
  6
Continuous
 62
     7
370
    25
100
AcDbLine
 10
-125.5
 20
-5.0
 30
0.0
 11
-150.5
 21
-5.0
 31
0.0
  0
LINE
  5
2AA
330
1F
100
AcDbEntity
  8
0
  6
Continuous
 62
     7
370
    25
100
AcDbLine
 10
172.3340583919
 20
-3.4000829898
 30
0.0
 11
172.3340583919
 21
-6.0246952078
 31
0.0
  0
LINE
  5
2AB
330
1F
100
AcDbEntity
  8
0
  6
Continuous
 62
     7
370
    25
100
AcDbLine
 10
172.3340583919
 20
-6.0246952078
 30
0.0
 11
179.0840583919
 21
-8.4814942891
 31
0.0
  0
LINE
  5
2AC
330
1F
100
AcDbEntity
  8
0
  6
Continuous
 62
     7
370
    25
100
AcDbLine
 10
179.0840583919
 20
-8.4814942891
 30
0.0
 11
179.0840583919
 21
-10.3680618585
 31
0.0
  0
LINE
  5
2AD
330
1F
100
AcDbEntity
  8
0
  6
Continuous
 62
     7
370
    25
100
AcDbLine
 10
179.0840583919
 20
-10.3680618585
 30
0.0
 11
172.3340583919
 21
-12.8248609398
 31
0.0
  0
LINE
  5
2AE
330
1F
100
AcDbEntity
  8
0
  6
Continuous
 62
     7
370
    25
100
AcDbLine
 10
172.3340583919
 20
-12.8248609398
 30
0.0
 11
172.3340583919
 21
-15.4494731578
 31
0.0
  0
LINE
  5
2AF
330
1F
100
AcDbEntity
  8
0
  6
Continuous
 62
     7
370
    25
100
AcDbLine
 10
172.3340583919
 20
-15.4494731578
 30
0.0
 11
179.0840583919
 21
-17.9062722391
 31
0.0
  0
LINE
  5
2B0
330
1F
100
AcDbEntity
  8
0
  6
Continuous
 62
     7
370
    25
100
AcDbLine
 10
179.0840583919
 20
-17.9062722391
 30
0.0
 11
179.0840583919
 21
-19.7928398085
 31
0.0
  0
LINE
  5
2B1
330
1F
100
AcDbEntity
  8
0
  6
Continuous
 62
     7
370
    25
100
AcDbLine
 10
179.0840583919
 20
-19.7928398085
 30
0.0
 11
172.3340583919
 21
-22.2496388898
 31
0.0
  0
LINE
  5
2B2
330
1F
100
AcDbEntity
  8
0
  6
Continuous
 62
     7
370
    25
100
AcDbLine
 10
172.3340583919
 20
-22.2496388898
 30
0.0
 11
172.3340583919
 21
-24.8742511078
 31
0.0
  0
LINE
  5
2B3
330
1F
100
AcDbEntity
  8
0
  6
Continuous
 62
     7
370
    25
100
AcDbLine
 10
172.3340583919
 20
-24.8742511078
 30
0.0
 11
179.0840583919
 21
-27.3310501891
 31
0.0
  0
LINE
  5
2B4
330
1F
100
AcDbEntity
  8
0
  6
Continuous
 62
     7
370
    25
100
AcDbLine
 10
179.0840583919
 20
-27.3310501891
 30
0.0
 11
179.0840583919
 21
-29.2176177585
 31
0.0
  0
LINE
  5
2B5
330
1F
100
AcDbEntity
  8
0
  6
Continuous
 62
     7
370
    25
100
AcDbLine
 10
179.0840583919
 20
-29.2176177585
 30
0.0
 11
172.3340583919
 21
-31.6744168398
 31
0.0
  0
LINE
  5
2B6
330
1F
100
AcDbEntity
  8
0
  6
Continuous
 62
     7
370
    25
100
AcDbLine
 10
172.3340583919
 20
-31.6744168398
 30
0.0
 11
172.3340583919
 21
-34.2990290578
 31
0.0
  0
LINE
  5
2B7
330
1F
100
AcDbEntity
  8
0
  6
Continuous
 62
     7
370
    25
100
AcDbLine
 10
172.3340583919
 20
-34.2990290578
 30
0.0
 11
179.0840583919
 21
-36.7558281391
 31
0.0
  0
LINE
  5
2B8
330
1F
100
AcDbEntity
  8
0
  6
Continuous
 62
     7
370
    25
100
AcDbLine
 10
179.0840583919
 20
-36.7558281391
 30
0.0
 11
179.0840583919
 21
-38.6423957085
 31
0.0
  0
LINE
  5
2B9
330
1F
100
AcDbEntity
  8
0
  6
Continuous
 62
     7
370
    25
100
AcDbLine
 10
179.0840583919
 20
-38.6423957085
 30
0.0
 11
172.3340583919
 21
-41.0991947898
 31
0.0
  0
LINE
  5
2BA
330
1F
100
AcDbEntity
  8
0
  6
Continuous
 62
     7
370
    25
100
AcDbLine
 10
172.3340583919
 20
-41.0991947898
 30
0.0
 11
172.3340583919
 21
-43.7238070078
 31
0.0
  0
LINE
  5
2BB
330
1F
100
AcDbEntity
  8
0
  6
Continuous
 62
     7
370
    25
100
AcDbLine
 10
172.3340583919
 20
-43.7238070078
 30
0.0
 11
179.0840583919
 21
-46.1806060891
 31
0.0
  0
LINE
  5
2BC
330
1F
100
AcDbEntity
  8
0
  6
Continuous
 62
     7
370
    25
100
AcDbLine
 10
179.0840583919
 20
-46.1806060891
 30
0.0
 11
179.0840583919
 21
-48.0671736585
 31
0.0
  0
LINE
  5
2BD
330
1F
100
AcDbEntity
  8
0
  6
Continuous
 62
     7
370
    25
100
AcDbLine
 10
179.0840583919
 20
-48.0671736585
 30
0.0
 11
172.3340583919
 21
-50.5239727398
 31
0.0
  0
LINE
  5
2BE
330
1F
100
AcDbEntity
  8
0
  6
Continuous
 62
     7
370
    25
100
AcDbLine
 10
172.3340583919
 20
-50.5239727398
 30
0.0
 11
172.3340583919
 21
-53.1485849578
 31
0.0
  0
LINE
  5
2BF
330
1F
100
AcDbEntity
  8
0
  6
Continuous
 62
     7
370
    25
100
AcDbLine
 10
172.3340583919
 20
-53.1485849578
 30
0.0
 11
179.0840583919
 21
-55.6053840391
 31
0.0
  0
LINE
  5
2C0
330
1F
100
AcDbEntity
  8
0
  6
Continuous
 62
     7
370
    25
100
AcDbLine
 10
179.0840583919
 20
-55.6053840391
 30
0.0
 11
179.0840583919
 21
-57.4919516085
 31
0.0
  0
LINE
  5
2C1
330
1F
100
AcDbEntity
  8
0
  6
Continuous
 62
     7
370
    25
100
AcDbLine
 10
179.0840583919
 20
-57.4919516085
 30
0.0
 11
172.3340583919
 21
-59.9487506898
 31
0.0
  0
LINE
  5
2C2
330
1F
100
AcDbEntity
  8
0
  6
Continuous
 62
     7
370
    25
100
AcDbLine
 10
172.3340583919
 20
-59.9487506898
 30
0.0
 11
172.3340583919
 21
-62.5733629078
 31
0.0
  0
LINE
  5
2C3
330
1F
100
AcDbEntity
  8
0
  6
Continuous
 62
     7
370
    25
100
AcDbLine
 10
172.3340583919
 20
-62.5733629078
 30
0.0
 11
179.0840583919
 21
-65.0301619891
 31
0.0
  0
LINE
  5
2C4
330
1F
100
AcDbEntity
  8
0
  6
Continuous
 62
     7
370
    25
100
AcDbLine
 10
179.0840583919
 20
-65.0301619891
 30
0.0
 11
179.0840583919
 21
-66.9167295585
 31
0.0
  0
LINE
  5
2C5
330
1F
100
AcDbEntity
  8
0
  6
Continuous
 62
     7
370
    25
100
AcDbLine
 10
179.0840583919
 20
-66.9167295585
 30
0.0
 11
172.3340583919
 21
-69.3735286398
 31
0.0
  0
LINE
  5
2C6
330
1F
100
AcDbEntity
  8
0
  6
Continuous
 62
     7
370
    25
100
AcDbLine
 10
172.3340583919
 20
-69.3735286398
 30
0.0
 11
172.3340583919
 21
-71.9981408578
 31
0.0
  0
LINE
  5
2C7
330
1F
100
AcDbEntity
  8
0
  6
Continuous
 62
     7
370
    25
100
AcDbLine
 10
172.3340583919
 20
-71.9981408578
 30
0.0
 11
179.0840583919
 21
-74.4549399391
 31
0.0
  0
LINE
  5
2C8
330
1F
100
AcDbEntity
  8
0
  6
Continuous
 62
     7
370
    25
100
AcDbLine
 10
179.0840583919
 20
-74.4549399391
 30
0.0
 11
179.0840583919
 21
-76.3415075085
 31
0.0
  0
LINE
  5
2C9
330
1F
100
AcDbEntity
  8
0
  6
Continuous
 62
     7
370
    25
100
AcDbLine
 10
179.0840583919
 20
-76.3415075085
 30
0.0
 11
172.3340583919
 21
-78.7983065898
 31
0.0
  0
LINE
  5
2CA
330
1F
100
AcDbEntity
  8
0
  6
Continuous
 62
     7
370
    25
100
AcDbLine
 10
172.3340583919
 20
-78.7983065898
 30
0.0
 11
172.3340583919
 21
-81.4229188078
 31
0.0
  0
LINE
  5
2CB
330
1F
100
AcDbEntity
  8
0
  6
Continuous
 62
     7
370
    25
100
AcDbLine
 10
172.3340583919
 20
-81.4229188078
 30
0.0
 11
179.0840583919
 21
-83.8797178891
 31
0.0
  0
LINE
  5
2CC
330
1F
100
AcDbEntity
  8
0
  6
Continuous
 62
     7
370
    25
100
AcDbLine
 10
179.0840583919
 20
-83.8797178891
 30
0.0
 11
179.0840583919
 21
-85.7662854585
 31
0.0
  0
LINE
  5
2CD
330
1F
100
AcDbEntity
  8
0
  6
Continuous
 62
     7
370
    25
100
AcDbLine
 10
179.0840583919
 20
-85.7662854585
 30
0.0
 11
172.3340583919
 21
-88.2230845398
 31
0.0
  0
LINE
  5
2CE
330
1F
100
AcDbEntity
  8
0
  6
Continuous
 62
     7
370
    25
100
AcDbLine
 10
172.3340583919
 20
-88.2230845398
 30
0.0
 11
172.3340583919
 21
-90.8476967578
 31
0.0
  0
LINE
  5
2CF
330
1F
100
AcDbEntity
  8
0
  6
Continuous
 62
     7
370
    25
100
AcDbLine
 10
172.3340583919
 20
-90.8476967578
 30
0.0
 11
179.0840583919
 21
-93.3044958391
 31
0.0
  0
LINE
  5
2D0
330
1F
100
AcDbEntity
  8
0
  6
Continuous
 62
     7
370
    25
100
AcDbLine
 10
179.0840583919
 20
-93.3044958391
 30
0.0
 11
179.0840583919
 21
-95.1910634085
 31
0.0
  0
LINE
  5
2D1
330
1F
100
AcDbEntity
  8
0
  6
Continuous
 62
     7
370
    25
100
AcDbLine
 10
179.0840583919
 20
-95.1910634085
 30
0.0
 11
172.3340583919
 21
-97.6478624898
 31
0.0
  0
LINE
  5
2D2
330
1F
100
AcDbEntity
  8
0
  6
Continuous
 62
     7
370
    25
100
AcDbLine
 10
172.3340583919
 20
-97.6478624898
 30
0.0
 11
172.3340583919
 21
-100.2724747078
 31
0.0
  0
LINE
  5
2D3
330
1F
100
AcDbEntity
  8
0
  6
Continuous
 62
     7
370
    25
100
AcDbLine
 10
172.3340583919
 20
-100.2724747078
 30
0.0
 11
179.0840583919
 21
-102.7292737891
 31
0.0
  0
LINE
  5
2D4
330
1F
100
AcDbEntity
  8
0
  6
Continuous
 62
     7
370
    25
100
AcDbLine
 10
179.0840583919
 20
-102.7292737891
 30
0.0
 11
179.0840583919
 21
-104.6158413585
 31
0.0
  0
LINE
  5
2D5
330
1F
100
AcDbEntity
  8
0
  6
Continuous
 62
     7
370
    25
100
AcDbLine
 10
179.0840583919
 20
-104.6158413585
 30
0.0
 11
172.3340583919
 21
-107.0726404398
 31
0.0
  0
LINE
  5
2D6
330
1F
100
AcDbEntity
  8
0
  6
Continuous
 62
     7
370
    25
100
AcDbLine
 10
172.3340583919
 20
-107.0726404398
 30
0.0
 11
172.2907760285
 21
-109.8742254739
 31
0.0
  0
LINE
  5
2D7
330
1F
100
AcDbEntity
  8
0
  6
Continuous
 62
     7
370
    25
100
AcDbLine
 10
147.573337317
 20
-134.5916641854
 30
0.0
 11
144.7717522829
 21
-134.6349465488
 31
0.0
  0
LINE
  5
2D8
330
1F
100
AcDbEntity
  8
0
  6
Continuous
 62
     7
370
    25
100
AcDbLine
 10
144.7717522829
 20
-134.6349465488
 30
0.0
 11
142.3149532016
 21
-141.3849465488
 31
0.0
  0
LINE
  5
2D9
330
1F
100
AcDbEntity
  8
0
  6
Continuous
 62
     7
370
    25
100
AcDbLine
 10
142.3149532016
 20
-141.3849465488
 30
0.0
 11
140.4283856322
 21
-141.3849465488
 31
0.0
  0
LINE
  5
2DA
330
1F
100
AcDbEntity
  8
0
  6
Continuous
 62
     7
370
    25
100
AcDbLine
 10
140.4283856322
 20
-141.3849465488
 30
0.0
 11
137.9715865509
 21
-134.6349465488
 31
0.0
  0
LINE
  5
2DB
330
1F
100
AcDbEntity
  8
0
  6
Continuous
 62
     7
370
    25
100
AcDbLine
 10
137.9715865509
 20
-134.6349465488
 30
0.0
 11
135.3469743329
 21
-134.6349465488
 31
0.0
  0
LINE
  5
2DC
330
1F
100
AcDbEntity
  8
0
  6
Continuous
 62
     7
370
    25
100
AcDbLine
 10
135.3469743329
 20
-134.6349465488
 30
0.0
 11
132.8901752516
 21
-141.3849465488
 31
0.0
  0
LINE
  5
2DD
330
1F
100
AcDbEntity
  8
0
  6
Continuous
 62
     7
370
    25
100
AcDbLine
 10
132.8901752516
 20
-141.3849465488
 30
0.0
 11
131.0036076822
 21
-141.3849465488
 31
0.0
  0
LINE
  5
2DE
330
1F
100
AcDbEntity
  8
0
  6
Continuous
 62
     7
370
    25
100
AcDbLine
 10
131.0036076822
 20
-141.3849465488
 30
0.0
 11
128.5468086009
 21
-134.6349465488
 31
0.0
  0
LINE
  5
2DF
330
1F
100
AcDbEntity
  8
0
  6
Continuous
 62
     7
370
    25
100
AcDbLine
 10
128.5468086009
 20
-134.6349465488
 30
0.0
 11
125.9221963829
 21
-134.6349465488
 31
0.0
  0
LINE
  5
2E0
330
1F
100
AcDbEntity
  8
0
  6
Continuous
 62
     7
370
    25
100
AcDbLine
 10
125.9221963829
 20
-134.6349465488
 30
0.0
 11
123.4653973016
 21
-141.3849465488
 31
0.0
  0
LINE
  5
2E1
330
1F
100
AcDbEntity
  8
0
  6
Continuous
 62
     7
370
    25
100
AcDbLine
 10
123.4653973016
 20
-141.3849465488
 30
0.0
 11
121.5788297322
 21
-141.3849465488
 31
0.0
  0
LINE
  5
2E2
330
1F
100
AcDbEntity
  8
0
  6
Continuous
 62
     7
370
    25
100
AcDbLine
 10
121.5788297322
 20
-141.3849465488
 30
0.0
 11
119.1220306509
 21
-134.6349465488
 31
0.0
  0
LINE
  5
2E3
330
1F
100
AcDbEntity
  8
0
  6
Continuous
 62
     7
370
    25
100
AcDbLine
 10
119.1220306509
 20
-134.6349465488
 30
0.0
 11
116.4974184329
 21
-134.6349465488
 31
0.0
  0
LINE
  5
2E4
330
1F
100
AcDbEntity
  8
0
  6
Continuous
 62
     7
370
    25
100
AcDbLine
 10
116.4974184329
 20
-134.6349465488
 30
0.0
 11
114.0406193516
 21
-141.3849465488
 31
0.0
  0
LINE
  5
2E5
330
1F
100
AcDbEntity
  8
0
  6
Continuous
 62
     7
370
    25
100
AcDbLine
 10
114.0406193516
 20
-141.3849465488
 30
0.0
 11
112.1540517822
 21
-141.3849465488
 31
0.0
  0
LINE
  5
2E6
330
1F
100
AcDbEntity
  8
0
  6
Continuous
 62
     7
370
    25
100
AcDbLine
 10
112.1540517822
 20
-141.3849465488
 30
0.0
 11
109.6972527009
 21
-134.6349465488
 31
0.0
  0
LINE
  5
2E7
330
1F
100
AcDbEntity
  8
0
  6
Continuous
 62
     7
370
    25
100
AcDbLine
 10
109.6972527009
 20
-134.6349465488
 30
0.0
 11
107.0726404829
 21
-134.6349465488
 31
0.0
  0
LINE
  5
2E8
330
1F
100
AcDbEntity
  8
0
  6
Continuous
 62
     7
370
    25
100
AcDbLine
 10
107.0726404829
 20
-134.6349465488
 30
0.0
 11
104.6158414016
 21
-141.3849465488
 31
0.0
  0
LINE
  5
2E9
330
1F
100
AcDbEntity
  8
0
  6
Continuous
 62
     7
370
    25
100
AcDbLine
 10
104.6158414016
 20
-141.3849465488
 30
0.0
 11
102.7292738322
 21
-141.3849465488
 31
0.0
  0
LINE
  5
2EA
330
1F
100
AcDbEntity
  8
0
  6
Continuous
 62
     7
370
    25
100
AcDbLine
 10
102.7292738322
 20
-141.3849465488
 30
0.0
 11
100.2724747509
 21
-134.6349465488
 31
0.0
  0
LINE
  5
2EB
330
1F
100
AcDbEntity
  8
0
  6
Continuous
 62
     7
370
    25
100
AcDbLine
 10
100.2724747509
 20
-134.6349465488
 30
0.0
 11
97.6478625329
 21
-134.6349465488
 31
0.0
  0
LINE
  5
2EC
330
1F
100
AcDbEntity
  8
0
  6
Continuous
 62
     7
370
    25
100
AcDbLine
 10
97.6478625329
 20
-134.6349465488
 30
0.0
 11
95.1910634516
 21
-141.3849465488
 31
0.0
  0
LINE
  5
2ED
330
1F
100
AcDbEntity
  8
0
  6
Continuous
 62
     7
370
    25
100
AcDbLine
 10
95.1910634516
 20
-141.3849465488
 30
0.0
 11
93.3044958822
 21
-141.3849465488
 31
0.0
  0
LINE
  5
2EE
330
1F
100
AcDbEntity
  8
0
  6
Continuous
 62
     7
370
    25
100
AcDbLine
 10
93.3044958822
 20
-141.3849465488
 30
0.0
 11
90.8476968009
 21
-134.6349465488
 31
0.0
  0
LINE
  5
2EF
330
1F
100
AcDbEntity
  8
0
  6
Continuous
 62
     7
370
    25
100
AcDbLine
 10
90.8476968009
 20
-134.6349465488
 30
0.0
 11
88.2230845829
 21
-134.6349465488
 31
0.0
  0
LINE
  5
2F0
330
1F
100
AcDbEntity
  8
0
  6
Continuous
 62
     7
370
    25
100
AcDbLine
 10
88.2230845829
 20
-134.6349465488
 30
0.0
 11
85.7662855016
 21
-141.3849465488
 31
0.0
  0
LINE
  5
2F1
330
1F
100
AcDbEntity
  8
0
  6
Continuous
 62
     7
370
    25
100
AcDbLine
 10
85.7662855016
 20
-141.3849465488
 30
0.0
 11
83.8797179322
 21
-141.3849465488
 31
0.0
  0
LINE
  5
2F2
330
1F
100
AcDbEntity
  8
0
  6
Continuous
 62
     7
370
    25
100
AcDbLine
 10
83.8797179322
 20
-141.3849465488
 30
0.0
 11
81.4229188509
 21
-134.6349465488
 31
0.0
  0
LINE
  5
2F3
330
1F
100
AcDbEntity
  8
0
  6
Continuous
 62
     7
370
    25
100
AcDbLine
 10
81.4229188509
 20
-134.6349465488
 30
0.0
 11
78.7983066329
 21
-134.6349465488
 31
0.0
  0
LINE
  5
2F4
330
1F
100
AcDbEntity
  8
0
  6
Continuous
 62
     7
370
    25
100
AcDbLine
 10
78.7983066329
 20
-134.6349465488
 30
0.0
 11
76.3415075516
 21
-141.3849465488
 31
0.0
  0
LINE
  5
2F5
330
1F
100
AcDbEntity
  8
0
  6
Continuous
 62
     7
370
    25
100
AcDbLine
 10
76.3415075516
 20
-141.3849465488
 30
0.0
 11
74.4549399822
 21
-141.3849465488
 31
0.0
  0
LINE
  5
2F6
330
1F
100
AcDbEntity
  8
0
  6
Continuous
 62
     7
370
    25
100
AcDbLine
 10
74.4549399822
 20
-141.3849465488
 30
0.0
 11
71.9981409009
 21
-134.6349465488
 31
0.0
  0
LINE
  5
2F7
330
1F
100
AcDbEntity
  8
0
  6
Continuous
 62
     7
370
    25
100
AcDbLine
 10
71.9981409009
 20
-134.6349465488
 30
0.0
 11
69.3735286829
 21
-134.6349465488
 31
0.0
  0
LINE
  5
2F8
330
1F
100
AcDbEntity
  8
0
  6
Continuous
 62
     7
370
    25
100
AcDbLine
 10
69.3735286829
 20
-134.6349465488
 30
0.0
 11
66.9167296016
 21
-141.3849465488
 31
0.0
  0
LINE
  5
2F9
330
1F
100
AcDbEntity
  8
0
  6
Continuous
 62
     7
370
    25
100
AcDbLine
 10
66.9167296016
 20
-141.3849465488
 30
0.0
 11
65.0301620322
 21
-141.3849465488
 31
0.0
  0
LINE
  5
2FA
330
1F
100
AcDbEntity
  8
0
  6
Continuous
 62
     7
370
    25
100
AcDbLine
 10
65.0301620322
 20
-141.3849465488
 30
0.0
 11
62.5733629509
 21
-134.6349465488
 31
0.0
  0
LINE
  5
2FB
330
1F
100
AcDbEntity
  8
0
  6
Continuous
 62
     7
370
    25
100
AcDbLine
 10
62.5733629509
 20
-134.6349465488
 30
0.0
 11
59.9487507329
 21
-134.6349465488
 31
0.0
  0
LINE
  5
2FC
330
1F
100
AcDbEntity
  8
0
  6
Continuous
 62
     7
370
    25
100
AcDbLine
 10
59.9487507329
 20
-134.6349465488
 30
0.0
 11
57.4919516516
 21
-141.3849465488
 31
0.0
  0
LINE
  5
2FD
330
1F
100
AcDbEntity
  8
0
  6
Continuous
 62
     7
370
    25
100
AcDbLine
 10
57.4919516516
 20
-141.3849465488
 30
0.0
 11
55.6053840822
 21
-141.3849465488
 31
0.0
  0
LINE
  5
2FE
330
1F
100
AcDbEntity
  8
0
  6
Continuous
 62
     7
370
    25
100
AcDbLine
 10
55.6053840822
 20
-141.3849465488
 30
0.0
 11
53.1485850009
 21
-134.6349465488
 31
0.0
  0
LINE
  5
2FF
330
1F
100
AcDbEntity
  8
0
  6
Continuous
 62
     7
370
    25
100
AcDbLine
 10
53.1485850009
 20
-134.6349465488
 30
0.0
 11
50.5239727829
 21
-134.6349465488
 31
0.0
  0
LINE
  5
300
330
1F
100
AcDbEntity
  8
0
  6
Continuous
 62
     7
370
    25
100
AcDbLine
 10
50.5239727829
 20
-134.6349465488
 30
0.0
 11
48.0671737016
 21
-141.3849465488
 31
0.0
  0
LINE
  5
301
330
1F
100
AcDbEntity
  8
0
  6
Continuous
 62
     7
370
    25
100
AcDbLine
 10
48.0671737016
 20
-141.3849465488
 30
0.0
 11
46.1806061322
 21
-141.3849465488
 31
0.0
  0
LINE
  5
302
330
1F
100
AcDbEntity
  8
0
  6
Continuous
 62
     7
370
    25
100
AcDbLine
 10
46.1806061322
 20
-141.3849465488
 30
0.0
 11
43.7238070509
 21
-134.6349465488
 31
0.0
  0
LINE
  5
303
330
1F
100
AcDbEntity
  8
0
  6
Continuous
 62
     7
370
    25
100
AcDbLine
 10
43.7238070509
 20
-134.6349465488
 30
0.0
 11
41.0991948329
 21
-134.6349465488
 31
0.0
  0
LINE
  5
304
330
1F
100
AcDbEntity
  8
0
  6
Continuous
 62
     7
370
    25
100
AcDbLine
 10
41.0991948329
 20
-134.6349465488
 30
0.0
 11
38.6423957516
 21
-141.3849465488
 31
0.0
  0
LINE
  5
305
330
1F
100
AcDbEntity
  8
0
  6
Continuous
 62
     7
370
    25
100
AcDbLine
 10
38.6423957516
 20
-141.3849465488
 30
0.0
 11
36.7558281822
 21
-141.3849465488
 31
0.0
  0
LINE
  5
306
330
1F
100
AcDbEntity
  8
0
  6
Continuous
 62
     7
370
    25
100
AcDbLine
 10
36.7558281822
 20
-141.3849465488
 30
0.0
 11
34.2990291009
 21
-134.6349465488
 31
0.0
  0
LINE
  5
307
330
1F
100
AcDbEntity
  8
0
  6
Continuous
 62
     7
370
    25
100
AcDbLine
 10
34.2990291009
 20
-134.6349465488
 30
0.0
 11
31.6744168829
 21
-134.6349465488
 31
0.0
  0
LINE
  5
308
330
1F
100
AcDbEntity
  8
0
  6
Continuous
 62
     7
370
    25
100
AcDbLine
 10
31.6744168829
 20
-134.6349465488
 30
0.0
 11
29.2176178016
 21
-141.3849465488
 31
0.0
  0
LINE
  5
309
330
1F
100
AcDbEntity
  8
0
  6
Continuous
 62
     7
370
    25
100
AcDbLine
 10
29.2176178016
 20
-141.3849465488
 30
0.0
 11
27.3310502322
 21
-141.3849465488
 31
0.0
  0
LINE
  5
30A
330
1F
100
AcDbEntity
  8
0
  6
Continuous
 62
     7
370
    25
100
AcDbLine
 10
27.3310502322
 20
-141.3849465488
 30
0.0
 11
24.8742511509
 21
-134.6349465488
 31
0.0
  0
LINE
  5
30B
330
1F
100
AcDbEntity
  8
0
  6
Continuous
 62
     7
370
    25
100
AcDbLine
 10
24.8742511509
 20
-134.6349465488
 30
0.0
 11
22.2496389329
 21
-134.6349465488
 31
0.0
  0
LINE
  5
30C
330
1F
100
AcDbEntity
  8
0
  6
Continuous
 62
     7
370
    25
100
AcDbLine
 10
22.2496389329
 20
-134.6349465488
 30
0.0
 11
19.7928398516
 21
-141.3849465488
 31
0.0
  0
LINE
  5
30D
330
1F
100
AcDbEntity
  8
0
  6
Continuous
 62
     7
370
    25
100
AcDbLine
 10
19.7928398516
 20
-141.3849465488
 30
0.0
 11
17.9062722822
 21
-141.3849465488
 31
0.0
  0
LINE
  5
30E
330
1F
100
AcDbEntity
  8
0
  6
Continuous
 62
     7
370
    25
100
AcDbLine
 10
17.9062722822
 20
-141.3849465488
 30
0.0
 11
15.4494732009
 21
-134.6349465488
 31
0.0
  0
LINE
  5
30F
330
1F
100
AcDbEntity
  8
0
  6
Continuous
 62
     7
370
    25
100
AcDbLine
 10
15.4494732009
 20
-134.6349465488
 30
0.0
 11
12.8248609829
 21
-134.6349465488
 31
0.0
  0
LINE
  5
310
330
1F
100
AcDbEntity
  8
0
  6
Continuous
 62
     7
370
    25
100
AcDbLine
 10
12.8248609829
 20
-134.6349465488
 30
0.0
 11
10.3680619016
 21
-141.3849465488
 31
0.0
  0
LINE
  5
311
330
1F
100
AcDbEntity
  8
0
  6
Continuous
 62
     7
370
    25
100
AcDbLine
 10
10.3680619016
 20
-141.3849465488
 30
0.0
 11
8.4814943322
 21
-141.3849465488
 31
0.0
  0
LINE
  5
312
330
1F
100
AcDbEntity
  8
0
  6
Continuous
 62
     7
370
    25
100
AcDbLine
 10
8.4814943322
 20
-141.3849465488
 30
0.0
 11
6.0246952509
 21
-134.6349465488
 31
0.0
  0
LINE
  5
313
330
1F
100
AcDbEntity
  8
0
  6
Continuous
 62
     7
370
    25
100
AcDbLine
 10
6.0246952509
 20
-134.6349465488
 30
0.0
 11
3.4000830329
 21
-134.6349465488
 31
0.0
  0
LINE
  5
314
330
1F
100
AcDbEntity
  8
0
  6
Continuous
 62
     7
370
    25
100
AcDbLine
 10
3.4000830329
 20
-134.6349465488
 30
0.0
 11
0.9432839516
 21
-141.3849465488
 31
0.0
  0
LINE
  5
315
330
1F
100
AcDbEntity
  8
0
  6
Continuous
 62
     7
370
    25
100
AcDbLine
 10
0.9432839516
 20
-141.3849465488
 30
0.0
 11
-0.9432839516
 21
-141.3849465488
 31
0.0
  0
LINE
  5
316
330
1F
100
AcDbEntity
  8
0
  6
Continuous
 62
     7
370
    25
100
AcDbLine
 10
-3.4000830329
 20
-134.6349465488
 30
0.0
 11
-0.9432839516
 21
-141.3849465488
 31
0.0
  0
LINE
  5
317
330
1F
100
AcDbEntity
  8
0
  6
Continuous
 62
     7
370
    25
100
AcDbLine
 10
-6.0246952509
 20
-134.6349465488
 30
0.0
 11
-3.4000830329
 21
-134.6349465488
 31
0.0
  0
LINE
  5
318
330
1F
100
AcDbEntity
  8
0
  6
Continuous
 62
     7
370
    25
100
AcDbLine
 10
-8.4814943322
 20
-141.3849465488
 30
0.0
 11
-6.0246952509
 21
-134.6349465488
 31
0.0
  0
LINE
  5
319
330
1F
100
AcDbEntity
  8
0
  6
Continuous
 62
     7
370
    25
100
AcDbLine
 10
-10.3680619016
 20
-141.3849465488
 30
0.0
 11
-8.4814943322
 21
-141.3849465488
 31
0.0
  0
LINE
  5
31A
330
1F
100
AcDbEntity
  8
0
  6
Continuous
 62
     7
370
    25
100
AcDbLine
 10
-12.8248609829
 20
-134.6349465488
 30
0.0
 11
-10.3680619016
 21
-141.3849465488
 31
0.0
  0
LINE
  5
31B
330
1F
100
AcDbEntity
  8
0
  6
Continuous
 62
     7
370
    25
100
AcDbLine
 10
-15.4494732009
 20
-134.6349465488
 30
0.0
 11
-12.8248609829
 21
-134.6349465488
 31
0.0
  0
LINE
  5
31C
330
1F
100
AcDbEntity
  8
0
  6
Continuous
 62
     7
370
    25
100
AcDbLine
 10
-17.9062722822
 20
-141.3849465488
 30
0.0
 11
-15.4494732009
 21
-134.6349465488
 31
0.0
  0
LINE
  5
31D
330
1F
100
AcDbEntity
  8
0
  6
Continuous
 62
     7
370
    25
100
AcDbLine
 10
-19.7928398516
 20
-141.3849465488
 30
0.0
 11
-17.9062722822
 21
-141.3849465488
 31
0.0
  0
LINE
  5
31E
330
1F
100
AcDbEntity
  8
0
  6
Continuous
 62
     7
370
    25
100
AcDbLine
 10
-22.2496389329
 20
-134.6349465488
 30
0.0
 11
-19.7928398516
 21
-141.3849465488
 31
0.0
  0
LINE
  5
31F
330
1F
100
AcDbEntity
  8
0
  6
Continuous
 62
     7
370
    25
100
AcDbLine
 10
-24.8742511509
 20
-134.6349465488
 30
0.0
 11
-22.2496389329
 21
-134.6349465488
 31
0.0
  0
LINE
  5
320
330
1F
100
AcDbEntity
  8
0
  6
Continuous
 62
     7
370
    25
100
AcDbLine
 10
-27.3310502322
 20
-141.3849465488
 30
0.0
 11
-24.8742511509
 21
-134.6349465488
 31
0.0
  0
LINE
  5
321
330
1F
100
AcDbEntity
  8
0
  6
Continuous
 62
     7
370
    25
100
AcDbLine
 10
-29.2176178016
 20
-141.3849465488
 30
0.0
 11
-27.3310502322
 21
-141.3849465488
 31
0.0
  0
LINE
  5
322
330
1F
100
AcDbEntity
  8
0
  6
Continuous
 62
     7
370
    25
100
AcDbLine
 10
-31.6744168829
 20
-134.6349465488
 30
0.0
 11
-29.2176178016
 21
-141.3849465488
 31
0.0
  0
LINE
  5
323
330
1F
100
AcDbEntity
  8
0
  6
Continuous
 62
     7
370
    25
100
AcDbLine
 10
-34.2990291009
 20
-134.6349465488
 30
0.0
 11
-31.6744168829
 21
-134.6349465488
 31
0.0
  0
LINE
  5
324
330
1F
100
AcDbEntity
  8
0
  6
Continuous
 62
     7
370
    25
100
AcDbLine
 10
-36.7558281822
 20
-141.3849465488
 30
0.0
 11
-34.2990291009
 21
-134.6349465488
 31
0.0
  0
LINE
  5
325
330
1F
100
AcDbEntity
  8
0
  6
Continuous
 62
     7
370
    25
100
AcDbLine
 10
-38.6423957516
 20
-141.3849465488
 30
0.0
 11
-36.7558281822
 21
-141.3849465488
 31
0.0
  0
LINE
  5
326
330
1F
100
AcDbEntity
  8
0
  6
Continuous
 62
     7
370
    25
100
AcDbLine
 10
-41.0991948329
 20
-134.6349465488
 30
0.0
 11
-38.6423957516
 21
-141.3849465488
 31
0.0
  0
LINE
  5
327
330
1F
100
AcDbEntity
  8
0
  6
Continuous
 62
     7
370
    25
100
AcDbLine
 10
-43.7238070509
 20
-134.6349465488
 30
0.0
 11
-41.0991948329
 21
-134.6349465488
 31
0.0
  0
LINE
  5
328
330
1F
100
AcDbEntity
  8
0
  6
Continuous
 62
     7
370
    25
100
AcDbLine
 10
-46.1806061322
 20
-141.3849465488
 30
0.0
 11
-43.7238070509
 21
-134.6349465488
 31
0.0
  0
LINE
  5
329
330
1F
100
AcDbEntity
  8
0
  6
Continuous
 62
     7
370
    25
100
AcDbLine
 10
-48.0671737016
 20
-141.3849465488
 30
0.0
 11
-46.1806061322
 21
-141.3849465488
 31
0.0
  0
LINE
  5
32A
330
1F
100
AcDbEntity
  8
0
  6
Continuous
 62
     7
370
    25
100
AcDbLine
 10
-50.5239727829
 20
-134.6349465488
 30
0.0
 11
-48.0671737016
 21
-141.3849465488
 31
0.0
  0
LINE
  5
32B
330
1F
100
AcDbEntity
  8
0
  6
Continuous
 62
     7
370
    25
100
AcDbLine
 10
-53.1485850009
 20
-134.6349465488
 30
0.0
 11
-50.5239727829
 21
-134.6349465488
 31
0.0
  0
LINE
  5
32C
330
1F
100
AcDbEntity
  8
0
  6
Continuous
 62
     7
370
    25
100
AcDbLine
 10
-55.6053840822
 20
-141.3849465488
 30
0.0
 11
-53.1485850009
 21
-134.6349465488
 31
0.0
  0
LINE
  5
32D
330
1F
100
AcDbEntity
  8
0
  6
Continuous
 62
     7
370
    25
100
AcDbLine
 10
-57.4919516516
 20
-141.3849465488
 30
0.0
 11
-55.6053840822
 21
-141.3849465488
 31
0.0
  0
LINE
  5
32E
330
1F
100
AcDbEntity
  8
0
  6
Continuous
 62
     7
370
    25
100
AcDbLine
 10
-59.9487507329
 20
-134.6349465488
 30
0.0
 11
-57.4919516516
 21
-141.3849465488
 31
0.0
  0
LINE
  5
32F
330
1F
100
AcDbEntity
  8
0
  6
Continuous
 62
     7
370
    25
100
AcDbLine
 10
-62.5733629509
 20
-134.6349465488
 30
0.0
 11
-59.9487507329
 21
-134.6349465488
 31
0.0
  0
LINE
  5
330
330
1F
100
AcDbEntity
  8
0
  6
Continuous
 62
     7
370
    25
100
AcDbLine
 10
-65.0301620322
 20
-141.3849465488
 30
0.0
 11
-62.5733629509
 21
-134.6349465488
 31
0.0
  0
LINE
  5
331
330
1F
100
AcDbEntity
  8
0
  6
Continuous
 62
     7
370
    25
100
AcDbLine
 10
-66.9167296016
 20
-141.3849465488
 30
0.0
 11
-65.0301620322
 21
-141.3849465488
 31
0.0
  0
LINE
  5
332
330
1F
100
AcDbEntity
  8
0
  6
Continuous
 62
     7
370
    25
100
AcDbLine
 10
-69.3735286829
 20
-134.6349465488
 30
0.0
 11
-66.9167296016
 21
-141.3849465488
 31
0.0
  0
LINE
  5
333
330
1F
100
AcDbEntity
  8
0
  6
Continuous
 62
     7
370
    25
100
AcDbLine
 10
-71.9981409009
 20
-134.6349465488
 30
0.0
 11
-69.3735286829
 21
-134.6349465488
 31
0.0
  0
LINE
  5
334
330
1F
100
AcDbEntity
  8
0
  6
Continuous
 62
     7
370
    25
100
AcDbLine
 10
-74.4549399822
 20
-141.3849465488
 30
0.0
 11
-71.9981409009
 21
-134.6349465488
 31
0.0
  0
LINE
  5
335
330
1F
100
AcDbEntity
  8
0
  6
Continuous
 62
     7
370
    25
100
AcDbLine
 10
-76.3415075516
 20
-141.3849465488
 30
0.0
 11
-74.4549399822
 21
-141.3849465488
 31
0.0
  0
LINE
  5
336
330
1F
100
AcDbEntity
  8
0
  6
Continuous
 62
     7
370
    25
100
AcDbLine
 10
-78.7983066329
 20
-134.6349465488
 30
0.0
 11
-76.3415075516
 21
-141.3849465488
 31
0.0
  0
LINE
  5
337
330
1F
100
AcDbEntity
  8
0
  6
Continuous
 62
     7
370
    25
100
AcDbLine
 10
-81.4229188509
 20
-134.6349465488
 30
0.0
 11
-78.7983066329
 21
-134.6349465488
 31
0.0
  0
LINE
  5
338
330
1F
100
AcDbEntity
  8
0
  6
Continuous
 62
     7
370
    25
100
AcDbLine
 10
-83.8797179322
 20
-141.3849465488
 30
0.0
 11
-81.4229188509
 21
-134.6349465488
 31
0.0
  0
LINE
  5
339
330
1F
100
AcDbEntity
  8
0
  6
Continuous
 62
     7
370
    25
100
AcDbLine
 10
-85.7662855016
 20
-141.3849465488
 30
0.0
 11
-83.8797179322
 21
-141.3849465488
 31
0.0
  0
LINE
  5
33A
330
1F
100
AcDbEntity
  8
0
  6
Continuous
 62
     7
370
    25
100
AcDbLine
 10
-88.2230845829
 20
-134.6349465488
 30
0.0
 11
-85.7662855016
 21
-141.3849465488
 31
0.0
  0
LINE
  5
33B
330
1F
100
AcDbEntity
  8
0
  6
Continuous
 62
     7
370
    25
100
AcDbLine
 10
-90.8476968009
 20
-134.6349465488
 30
0.0
 11
-88.2230845829
 21
-134.6349465488
 31
0.0
  0
LINE
  5
33C
330
1F
100
AcDbEntity
  8
0
  6
Continuous
 62
     7
370
    25
100
AcDbLine
 10
-93.3044958822
 20
-141.3849465488
 30
0.0
 11
-90.8476968009
 21
-134.6349465488
 31
0.0
  0
LINE
  5
33D
330
1F
100
AcDbEntity
  8
0
  6
Continuous
 62
     7
370
    25
100
AcDbLine
 10
-95.1910634516
 20
-141.3849465488
 30
0.0
 11
-93.3044958822
 21
-141.3849465488
 31
0.0
  0
LINE
  5
33E
330
1F
100
AcDbEntity
  8
0
  6
Continuous
 62
     7
370
    25
100
AcDbLine
 10
-97.6478625329
 20
-134.6349465488
 30
0.0
 11
-95.1910634516
 21
-141.3849465488
 31
0.0
  0
LINE
  5
33F
330
1F
100
AcDbEntity
  8
0
  6
Continuous
 62
     7
370
    25
100
AcDbLine
 10
-100.2724747509
 20
-134.6349465488
 30
0.0
 11
-97.6478625329
 21
-134.6349465488
 31
0.0
  0
LINE
  5
340
330
1F
100
AcDbEntity
  8
0
  6
Continuous
 62
     7
370
    25
100
AcDbLine
 10
-102.7292738322
 20
-141.3849465488
 30
0.0
 11
-100.2724747509
 21
-134.6349465488
 31
0.0
  0
LINE
  5
341
330
1F
100
AcDbEntity
  8
0
  6
Continuous
 62
     7
370
    25
100
AcDbLine
 10
-104.6158414016
 20
-141.3849465488
 30
0.0
 11
-102.7292738322
 21
-141.3849465488
 31
0.0
  0
LINE
  5
342
330
1F
100
AcDbEntity
  8
0
  6
Continuous
 62
     7
370
    25
100
AcDbLine
 10
-107.0726404829
 20
-134.6349465488
 30
0.0
 11
-104.6158414016
 21
-141.3849465488
 31
0.0
  0
LINE
  5
343
330
1F
100
AcDbEntity
  8
0
  6
Continuous
 62
     7
370
    25
100
AcDbLine
 10
-109.6972527009
 20
-134.6349465488
 30
0.0
 11
-107.0726404829
 21
-134.6349465488
 31
0.0
  0
LINE
  5
344
330
1F
100
AcDbEntity
  8
0
  6
Continuous
 62
     7
370
    25
100
AcDbLine
 10
-112.1540517822
 20
-141.3849465488
 30
0.0
 11
-109.6972527009
 21
-134.6349465488
 31
0.0
  0
LINE
  5
345
330
1F
100
AcDbEntity
  8
0
  6
Continuous
 62
     7
370
    25
100
AcDbLine
 10
-114.0406193516
 20
-141.3849465488
 30
0.0
 11
-112.1540517822
 21
-141.3849465488
 31
0.0
  0
LINE
  5
346
330
1F
100
AcDbEntity
  8
0
  6
Continuous
 62
     7
370
    25
100
AcDbLine
 10
-116.4974184329
 20
-134.6349465488
 30
0.0
 11
-114.0406193516
 21
-141.3849465488
 31
0.0
  0
LINE
  5
347
330
1F
100
AcDbEntity
  8
0
  6
Continuous
 62
     7
370
    25
100
AcDbLine
 10
-119.1220306509
 20
-134.6349465488
 30
0.0
 11
-116.4974184329
 21
-134.6349465488
 31
0.0
  0
LINE
  5
348
330
1F
100
AcDbEntity
  8
0
  6
Continuous
 62
     7
370
    25
100
AcDbLine
 10
-121.5788297322
 20
-141.3849465488
 30
0.0
 11
-119.1220306509
 21
-134.6349465488
 31
0.0
  0
LINE
  5
349
330
1F
100
AcDbEntity
  8
0
  6
Continuous
 62
     7
370
    25
100
AcDbLine
 10
-123.4653973016
 20
-141.3849465488
 30
0.0
 11
-121.5788297322
 21
-141.3849465488
 31
0.0
  0
LINE
  5
34A
330
1F
100
AcDbEntity
  8
0
  6
Continuous
 62
     7
370
    25
100
AcDbLine
 10
-125.9221963829
 20
-134.6349465488
 30
0.0
 11
-123.4653973016
 21
-141.3849465488
 31
0.0
  0
LINE
  5
34B
330
1F
100
AcDbEntity
  8
0
  6
Continuous
 62
     7
370
    25
100
AcDbLine
 10
-128.5468086009
 20
-134.6349465488
 30
0.0
 11
-125.9221963829
 21
-134.6349465488
 31
0.0
  0
LINE
  5
34C
330
1F
100
AcDbEntity
  8
0
  6
Continuous
 62
     7
370
    25
100
AcDbLine
 10
-131.0036076822
 20
-141.3849465488
 30
0.0
 11
-128.5468086009
 21
-134.6349465488
 31
0.0
  0
LINE
  5
34D
330
1F
100
AcDbEntity
  8
0
  6
Continuous
 62
     7
370
    25
100
AcDbLine
 10
-132.8901752516
 20
-141.3849465488
 30
0.0
 11
-131.0036076822
 21
-141.3849465488
 31
0.0
  0
LINE
  5
34E
330
1F
100
AcDbEntity
  8
0
  6
Continuous
 62
     7
370
    25
100
AcDbLine
 10
-135.3469743329
 20
-134.6349465488
 30
0.0
 11
-132.8901752516
 21
-141.3849465488
 31
0.0
  0
LINE
  5
34F
330
1F
100
AcDbEntity
  8
0
  6
Continuous
 62
     7
370
    25
100
AcDbLine
 10
-137.9715865509
 20
-134.6349465488
 30
0.0
 11
-135.3469743329
 21
-134.6349465488
 31
0.0
  0
LINE
  5
350
330
1F
100
AcDbEntity
  8
0
  6
Continuous
 62
     7
370
    25
100
AcDbLine
 10
-140.4283856322
 20
-141.3849465488
 30
0.0
 11
-137.9715865509
 21
-134.6349465488
 31
0.0
  0
LINE
  5
351
330
1F
100
AcDbEntity
  8
0
  6
Continuous
 62
     7
370
    25
100
AcDbLine
 10
-142.3149532016
 20
-141.3849465488
 30
0.0
 11
-140.4283856322
 21
-141.3849465488
 31
0.0
  0
LINE
  5
352
330
1F
100
AcDbEntity
  8
0
  6
Continuous
 62
     7
370
    25
100
AcDbLine
 10
-144.7717522829
 20
-134.6349465488
 30
0.0
 11
-142.3149532016
 21
-141.3849465488
 31
0.0
  0
LINE
  5
353
330
1F
100
AcDbEntity
  8
0
  6
Continuous
 62
     7
370
    25
100
AcDbLine
 10
-147.573337317
 20
-134.5916641854
 30
0.0
 11
-144.7717522829
 21
-134.6349465488
 31
0.0
  0
LINE
  5
354
330
1F
100
AcDbEntity
  8
0
  6
Continuous
 62
     7
370
    25
100
AcDbLine
 10
-172.3340583919
 20
-107.0726404398
 30
0.0
 11
-172.2907760285
 21
-109.8742254739
 31
0.0
  0
LINE
  5
355
330
1F
100
AcDbEntity
  8
0
  6
Continuous
 62
     7
370
    25
100
AcDbLine
 10
-179.0840583919
 20
-104.6158413585
 30
0.0
 11
-172.3340583919
 21
-107.0726404398
 31
0.0
  0
LINE
  5
356
330
1F
100
AcDbEntity
  8
0
  6
Continuous
 62
     7
370
    25
100
AcDbLine
 10
-179.0840583919
 20
-102.7292737891
 30
0.0
 11
-179.0840583919
 21
-104.6158413585
 31
0.0
  0
LINE
  5
357
330
1F
100
AcDbEntity
  8
0
  6
Continuous
 62
     7
370
    25
100
AcDbLine
 10
-172.3340583919
 20
-100.2724747078
 30
0.0
 11
-179.0840583919
 21
-102.7292737891
 31
0.0
  0
LINE
  5
358
330
1F
100
AcDbEntity
  8
0
  6
Continuous
 62
     7
370
    25
100
AcDbLine
 10
-172.3340583919
 20
-97.6478624898
 30
0.0
 11
-172.3340583919
 21
-100.2724747078
 31
0.0
  0
LINE
  5
359
330
1F
100
AcDbEntity
  8
0
  6
Continuous
 62
     7
370
    25
100
AcDbLine
 10
-179.0840583919
 20
-95.1910634085
 30
0.0
 11
-172.3340583919
 21
-97.6478624898
 31
0.0
  0
LINE
  5
35A
330
1F
100
AcDbEntity
  8
0
  6
Continuous
 62
     7
370
    25
100
AcDbLine
 10
-179.0840583919
 20
-93.3044958391
 30
0.0
 11
-179.0840583919
 21
-95.1910634085
 31
0.0
  0
LINE
  5
35B
330
1F
100
AcDbEntity
  8
0
  6
Continuous
 62
     7
370
    25
100
AcDbLine
 10
-172.3340583919
 20
-90.8476967578
 30
0.0
 11
-179.0840583919
 21
-93.3044958391
 31
0.0
  0
LINE
  5
35C
330
1F
100
AcDbEntity
  8
0
  6
Continuous
 62
     7
370
    25
100
AcDbLine
 10
-172.3340583919
 20
-88.2230845398
 30
0.0
 11
-172.3340583919
 21
-90.8476967578
 31
0.0
  0
LINE
  5
35D
330
1F
100
AcDbEntity
  8
0
  6
Continuous
 62
     7
370
    25
100
AcDbLine
 10
-179.0840583919
 20
-85.7662854585
 30
0.0
 11
-172.3340583919
 21
-88.2230845398
 31
0.0
  0
LINE
  5
35E
330
1F
100
AcDbEntity
  8
0
  6
Continuous
 62
     7
370
    25
100
AcDbLine
 10
-179.0840583919
 20
-83.8797178891
 30
0.0
 11
-179.0840583919
 21
-85.7662854585
 31
0.0
  0
LINE
  5
35F
330
1F
100
AcDbEntity
  8
0
  6
Continuous
 62
     7
370
    25
100
AcDbLine
 10
-172.3340583919
 20
-81.4229188078
 30
0.0
 11
-179.0840583919
 21
-83.8797178891
 31
0.0
  0
LINE
  5
360
330
1F
100
AcDbEntity
  8
0
  6
Continuous
 62
     7
370
    25
100
AcDbLine
 10
-172.3340583919
 20
-78.7983065898
 30
0.0
 11
-172.3340583919
 21
-81.4229188078
 31
0.0
  0
LINE
  5
361
330
1F
100
AcDbEntity
  8
0
  6
Continuous
 62
     7
370
    25
100
AcDbLine
 10
-179.0840583919
 20
-76.3415075085
 30
0.0
 11
-172.3340583919
 21
-78.7983065898
 31
0.0
  0
LINE
  5
362
330
1F
100
AcDbEntity
  8
0
  6
Continuous
 62
     7
370
    25
100
AcDbLine
 10
-179.0840583919
 20
-74.4549399391
 30
0.0
 11
-179.0840583919
 21
-76.3415075085
 31
0.0
  0
LINE
  5
363
330
1F
100
AcDbEntity
  8
0
  6
Continuous
 62
     7
370
    25
100
AcDbLine
 10
-172.3340583919
 20
-71.9981408578
 30
0.0
 11
-179.0840583919
 21
-74.4549399391
 31
0.0
  0
LINE
  5
364
330
1F
100
AcDbEntity
  8
0
  6
Continuous
 62
     7
370
    25
100
AcDbLine
 10
-172.3340583919
 20
-69.3735286398
 30
0.0
 11
-172.3340583919
 21
-71.9981408578
 31
0.0
  0
LINE
  5
365
330
1F
100
AcDbEntity
  8
0
  6
Continuous
 62
     7
370
    25
100
AcDbLine
 10
-179.0840583919
 20
-66.9167295585
 30
0.0
 11
-172.3340583919
 21
-69.3735286398
 31
0.0
  0
LINE
  5
366
330
1F
100
AcDbEntity
  8
0
  6
Continuous
 62
     7
370
    25
100
AcDbLine
 10
-179.0840583919
 20
-65.0301619891
 30
0.0
 11
-179.0840583919
 21
-66.9167295585
 31
0.0
  0
LINE
  5
367
330
1F
100
AcDbEntity
  8
0
  6
Continuous
 62
     7
370
    25
100
AcDbLine
 10
-172.3340583919
 20
-62.5733629078
 30
0.0
 11
-179.0840583919
 21
-65.0301619891
 31
0.0
  0
LINE
  5
368
330
1F
100
AcDbEntity
  8
0
  6
Continuous
 62
     7
370
    25
100
AcDbLine
 10
-172.3340583919
 20
-59.9487506898
 30
0.0
 11
-172.3340583919
 21
-62.5733629078
 31
0.0
  0
LINE
  5
369
330
1F
100
AcDbEntity
  8
0
  6
Continuous
 62
     7
370
    25
100
AcDbLine
 10
-179.0840583919
 20
-57.4919516085
 30
0.0
 11
-172.3340583919
 21
-59.9487506898
 31
0.0
  0
LINE
  5
36A
330
1F
100
AcDbEntity
  8
0
  6
Continuous
 62
     7
370
    25
100
AcDbLine
 10
-179.0840583919
 20
-55.6053840391
 30
0.0
 11
-179.0840583919
 21
-57.4919516085
 31
0.0
  0
LINE
  5
36B
330
1F
100
AcDbEntity
  8
0
  6
Continuous
 62
     7
370
    25
100
AcDbLine
 10
-172.3340583919
 20
-53.1485849578
 30
0.0
 11
-179.0840583919
 21
-55.6053840391
 31
0.0
  0
LINE
  5
36C
330
1F
100
AcDbEntity
  8
0
  6
Continuous
 62
     7
370
    25
100
AcDbLine
 10
-172.3340583919
 20
-50.5239727398
 30
0.0
 11
-172.3340583919
 21
-53.1485849578
 31
0.0
  0
LINE
  5
36D
330
1F
100
AcDbEntity
  8
0
  6
Continuous
 62
     7
370
    25
100
AcDbLine
 10
-179.0840583919
 20
-48.0671736585
 30
0.0
 11
-172.3340583919
 21
-50.5239727398
 31
0.0
  0
LINE
  5
36E
330
1F
100
AcDbEntity
  8
0
  6
Continuous
 62
     7
370
    25
100
AcDbLine
 10
-179.0840583919
 20
-46.1806060891
 30
0.0
 11
-179.0840583919
 21
-48.0671736585
 31
0.0
  0
LINE
  5
36F
330
1F
100
AcDbEntity
  8
0
  6
Continuous
 62
     7
370
    25
100
AcDbLine
 10
-172.3340583919
 20
-43.7238070078
 30
0.0
 11
-179.0840583919
 21
-46.1806060891
 31
0.0
  0
LINE
  5
370
330
1F
100
AcDbEntity
  8
0
  6
Continuous
 62
     7
370
    25
100
AcDbLine
 10
-172.3340583919
 20
-41.0991947898
 30
0.0
 11
-172.3340583919
 21
-43.7238070078
 31
0.0
  0
LINE
  5
371
330
1F
100
AcDbEntity
  8
0
  6
Continuous
 62
     7
370
    25
100
AcDbLine
 10
-179.0840583919
 20
-38.6423957085
 30
0.0
 11
-172.3340583919
 21
-41.0991947898
 31
0.0
  0
LINE
  5
372
330
1F
100
AcDbEntity
  8
0
  6
Continuous
 62
     7
370
    25
100
AcDbLine
 10
-179.0840583919
 20
-36.7558281391
 30
0.0
 11
-179.0840583919
 21
-38.6423957085
 31
0.0
  0
LINE
  5
373
330
1F
100
AcDbEntity
  8
0
  6
Continuous
 62
     7
370
    25
100
AcDbLine
 10
-172.3340583919
 20
-34.2990290578
 30
0.0
 11
-179.0840583919
 21
-36.7558281391
 31
0.0
  0
LINE
  5
374
330
1F
100
AcDbEntity
  8
0
  6
Continuous
 62
     7
370
    25
100
AcDbLine
 10
-172.3340583919
 20
-31.6744168398
 30
0.0
 11
-172.3340583919
 21
-34.2990290578
 31
0.0
  0
LINE
  5
375
330
1F
100
AcDbEntity
  8
0
  6
Continuous
 62
     7
370
    25
100
AcDbLine
 10
-179.0840583919
 20
-29.2176177585
 30
0.0
 11
-172.3340583919
 21
-31.6744168398
 31
0.0
  0
LINE
  5
376
330
1F
100
AcDbEntity
  8
0
  6
Continuous
 62
     7
370
    25
100
AcDbLine
 10
-179.0840583919
 20
-27.3310501891
 30
0.0
 11
-179.0840583919
 21
-29.2176177585
 31
0.0
  0
LINE
  5
377
330
1F
100
AcDbEntity
  8
0
  6
Continuous
 62
     7
370
    25
100
AcDbLine
 10
-172.3340583919
 20
-24.8742511078
 30
0.0
 11
-179.0840583919
 21
-27.3310501891
 31
0.0
  0
LINE
  5
378
330
1F
100
AcDbEntity
  8
0
  6
Continuous
 62
     7
370
    25
100
AcDbLine
 10
-172.3340583919
 20
-22.2496388898
 30
0.0
 11
-172.3340583919
 21
-24.8742511078
 31
0.0
  0
LINE
  5
379
330
1F
100
AcDbEntity
  8
0
  6
Continuous
 62
     7
370
    25
100
AcDbLine
 10
-179.0840583919
 20
-19.7928398085
 30
0.0
 11
-172.3340583919
 21
-22.2496388898
 31
0.0
  0
LINE
  5
37A
330
1F
100
AcDbEntity
  8
0
  6
Continuous
 62
     7
370
    25
100
AcDbLine
 10
-179.0840583919
 20
-17.9062722391
 30
0.0
 11
-179.0840583919
 21
-19.7928398085
 31
0.0
  0
LINE
  5
37B
330
1F
100
AcDbEntity
  8
0
  6
Continuous
 62
     7
370
    25
100
AcDbLine
 10
-172.3340583919
 20
-15.4494731578
 30
0.0
 11
-179.0840583919
 21
-17.9062722391
 31
0.0
  0
LINE
  5
37C
330
1F
100
AcDbEntity
  8
0
  6
Continuous
 62
     7
370
    25
100
AcDbLine
 10
-172.3340583919
 20
-12.8248609398
 30
0.0
 11
-172.3340583919
 21
-15.4494731578
 31
0.0
  0
LINE
  5
37D
330
1F
100
AcDbEntity
  8
0
  6
Continuous
 62
     7
370
    25
100
AcDbLine
 10
-179.0840583919
 20
-10.3680618585
 30
0.0
 11
-172.3340583919
 21
-12.8248609398
 31
0.0
  0
LINE
  5
37E
330
1F
100
AcDbEntity
  8
0
  6
Continuous
 62
     7
370
    25
100
AcDbLine
 10
-179.0840583919
 20
-8.4814942891
 30
0.0
 11
-179.0840583919
 21
-10.3680618585
 31
0.0
  0
LINE
  5
37F
330
1F
100
AcDbEntity
  8
0
  6
Continuous
 62
     7
370
    25
100
AcDbLine
 10
-172.3340583919
 20
-6.0246952078
 30
0.0
 11
-179.0840583919
 21
-8.4814942891
 31
0.0
  0
LINE
  5
380
330
1F
100
AcDbEntity
  8
0
  6
Continuous
 62
     7
370
    25
100
AcDbLine
 10
-172.3340583919
 20
-3.4000829898
 30
0.0
 11
-172.3340583919
 21
-6.0246952078
 31
0.0
  0
LINE
  5
381
330
1F
100
AcDbEntity
  8
0
  6
Continuous
 62
     7
370
    25
100
AcDbLine
 10
-179.0840583919
 20
-0.9432839085
 30
0.0
 11
-172.3340583919
 21
-3.4000829898
 31
0.0
  0
LINE
  5
382
330
1F
100
AcDbEntity
  8
0
  6
Continuous
 62
     7
370
    25
100
AcDbLine
 10
-179.0840583919
 20
-0.9432839085
 30
0.0
 11
-179.0840583919
 21
0.9432839085
 31
0.0
  0
LINE
  5
383
330
1F
100
AcDbEntity
  8
0
  6
Continuous
 62
     7
370
    25
100
AcDbLine
 10
-179.0840583919
 20
0.9432839085
 30
0.0
 11
-172.3340583919
 21
3.4000829898
 31
0.0
  0
LINE
  5
384
330
1F
100
AcDbEntity
  8
0
  6
Continuous
 62
     7
370
    25
100
AcDbLine
 10
-172.3340583919
 20
3.4000829898
 30
0.0
 11
-172.3340583919
 21
6.0246952078
 31
0.0
  0
LINE
  5
385
330
1F
100
AcDbEntity
  8
0
  6
Continuous
 62
     7
370
    25
100
AcDbLine
 10
-172.3340583919
 20
6.0246952078
 30
0.0
 11
-179.0840583919
 21
8.4814942891
 31
0.0
  0
LINE
  5
386
330
1F
100
AcDbEntity
  8
0
  6
Continuous
 62
     7
370
    25
100
AcDbLine
 10
-179.0840583919
 20
8.4814942891
 30
0.0
 11
-179.0840583919
 21
10.3680618585
 31
0.0
  0
LINE
  5
387
330
1F
100
AcDbEntity
  8
0
  6
Continuous
 62
     7
370
    25
100
AcDbLine
 10
-179.0840583919
 20
10.3680618585
 30
0.0
 11
-172.3340583919
 21
12.8248609398
 31
0.0
  0
LINE
  5
388
330
1F
100
AcDbEntity
  8
0
  6
Continuous
 62
     7
370
    25
100
AcDbLine
 10
-172.3340583919
 20
12.8248609398
 30
0.0
 11
-172.3340583919
 21
15.4494731578
 31
0.0
  0
LINE
  5
389
330
1F
100
AcDbEntity
  8
0
  6
Continuous
 62
     7
370
    25
100
AcDbLine
 10
-172.3340583919
 20
15.4494731578
 30
0.0
 11
-179.0840583919
 21
17.9062722391
 31
0.0
  0
LINE
  5
38A
330
1F
100
AcDbEntity
  8
0
  6
Continuous
 62
     7
370
    25
100
AcDbLine
 10
-179.0840583919
 20
17.9062722391
 30
0.0
 11
-179.0840583919
 21
19.7928398085
 31
0.0
  0
LINE
  5
38B
330
1F
100
AcDbEntity
  8
0
  6
Continuous
 62
     7
370
    25
100
AcDbLine
 10
-179.0840583919
 20
19.7928398085
 30
0.0
 11
-172.3340583919
 21
22.2496388898
 31
0.0
  0
LINE
  5
38C
330
1F
100
AcDbEntity
  8
0
  6
Continuous
 62
     7
370
    25
100
AcDbLine
 10
-172.3340583919
 20
22.2496388898
 30
0.0
 11
-172.3340583919
 21
24.8742511078
 31
0.0
  0
LINE
  5
38D
330
1F
100
AcDbEntity
  8
0
  6
Continuous
 62
     7
370
    25
100
AcDbLine
 10
-172.3340583919
 20
24.8742511078
 30
0.0
 11
-179.0840583919
 21
27.3310501891
 31
0.0
  0
LINE
  5
38E
330
1F
100
AcDbEntity
  8
0
  6
Continuous
 62
     7
370
    25
100
AcDbLine
 10
-179.0840583919
 20
27.3310501891
 30
0.0
 11
-179.0840583919
 21
29.2176177585
 31
0.0
  0
LINE
  5
38F
330
1F
100
AcDbEntity
  8
0
  6
Continuous
 62
     7
370
    25
100
AcDbLine
 10
-179.0840583919
 20
29.2176177585
 30
0.0
 11
-172.3340583919
 21
31.6744168398
 31
0.0
  0
LINE
  5
390
330
1F
100
AcDbEntity
  8
0
  6
Continuous
 62
     7
370
    25
100
AcDbLine
 10
-172.3340583919
 20
31.6744168398
 30
0.0
 11
-172.3340583919
 21
34.2990290578
 31
0.0
  0
LINE
  5
391
330
1F
100
AcDbEntity
  8
0
  6
Continuous
 62
     7
370
    25
100
AcDbLine
 10
-172.3340583919
 20
34.2990290578
 30
0.0
 11
-179.0840583919
 21
36.7558281391
 31
0.0
  0
LINE
  5
392
330
1F
100
AcDbEntity
  8
0
  6
Continuous
 62
     7
370
    25
100
AcDbLine
 10
-179.0840583919
 20
36.7558281391
 30
0.0
 11
-179.0840583919
 21
38.6423957085
 31
0.0
  0
LINE
  5
393
330
1F
100
AcDbEntity
  8
0
  6
Continuous
 62
     7
370
    25
100
AcDbLine
 10
-179.0840583919
 20
38.6423957085
 30
0.0
 11
-172.3340583919
 21
41.0991947898
 31
0.0
  0
LINE
  5
394
330
1F
100
AcDbEntity
  8
0
  6
Continuous
 62
     7
370
    25
100
AcDbLine
 10
-172.3340583919
 20
41.0991947898
 30
0.0
 11
-172.3340583919
 21
43.7238070078
 31
0.0
  0
LINE
  5
395
330
1F
100
AcDbEntity
  8
0
  6
Continuous
 62
     7
370
    25
100
AcDbLine
 10
-172.3340583919
 20
43.7238070078
 30
0.0
 11
-179.0840583919
 21
46.1806060891
 31
0.0
  0
LINE
  5
396
330
1F
100
AcDbEntity
  8
0
  6
Continuous
 62
     7
370
    25
100
AcDbLine
 10
-179.0840583919
 20
46.1806060891
 30
0.0
 11
-179.0840583919
 21
48.0671736585
 31
0.0
  0
LINE
  5
397
330
1F
100
AcDbEntity
  8
0
  6
Continuous
 62
     7
370
    25
100
AcDbLine
 10
-179.0840583919
 20
48.0671736585
 30
0.0
 11
-172.3340583919
 21
50.5239727398
 31
0.0
  0
LINE
  5
398
330
1F
100
AcDbEntity
  8
0
  6
Continuous
 62
     7
370
    25
100
AcDbLine
 10
-172.3340583919
 20
50.5239727398
 30
0.0
 11
-172.3340583919
 21
53.1485849578
 31
0.0
  0
LINE
  5
399
330
1F
100
AcDbEntity
  8
0
  6
Continuous
 62
     7
370
    25
100
AcDbLine
 10
-172.3340583919
 20
53.1485849578
 30
0.0
 11
-179.0840583919
 21
55.6053840391
 31
0.0
  0
LINE
  5
39A
330
1F
100
AcDbEntity
  8
0
  6
Continuous
 62
     7
370
    25
100
AcDbLine
 10
-179.0840583919
 20
55.6053840391
 30
0.0
 11
-179.0840583919
 21
57.4919516085
 31
0.0
  0
LINE
  5
39B
330
1F
100
AcDbEntity
  8
0
  6
Continuous
 62
     7
370
    25
100
AcDbLine
 10
-179.0840583919
 20
57.4919516085
 30
0.0
 11
-172.3340583919
 21
59.9487506898
 31
0.0
  0
LINE
  5
39C
330
1F
100
AcDbEntity
  8
0
  6
Continuous
 62
     7
370
    25
100
AcDbLine
 10
-172.3340583919
 20
59.9487506898
 30
0.0
 11
-172.3340583919
 21
62.5733629078
 31
0.0
  0
LINE
  5
39D
330
1F
100
AcDbEntity
  8
0
  6
Continuous
 62
     7
370
    25
100
AcDbLine
 10
-172.3340583919
 20
62.5733629078
 30
0.0
 11
-179.0840583919
 21
65.0301619891
 31
0.0
  0
LINE
  5
39E
330
1F
100
AcDbEntity
  8
0
  6
Continuous
 62
     7
370
    25
100
AcDbLine
 10
-179.0840583919
 20
65.0301619891
 30
0.0
 11
-179.0840583919
 21
66.9167295585
 31
0.0
  0
LINE
  5
39F
330
1F
100
AcDbEntity
  8
0
  6
Continuous
 62
     7
370
    25
100
AcDbLine
 10
-179.0840583919
 20
66.9167295585
 30
0.0
 11
-172.3340583919
 21
69.3735286398
 31
0.0
  0
LINE
  5
3A0
330
1F
100
AcDbEntity
  8
0
  6
Continuous
 62
     7
370
    25
100
AcDbLine
 10
-172.3340583919
 20
69.3735286398
 30
0.0
 11
-172.3340583919
 21
71.9981408578
 31
0.0
  0
LINE
  5
3A1
330
1F
100
AcDbEntity
  8
0
  6
Continuous
 62
     7
370
    25
100
AcDbLine
 10
-172.3340583919
 20
71.9981408578
 30
0.0
 11
-179.0840583919
 21
74.4549399391
 31
0.0
  0
LINE
  5
3A2
330
1F
100
AcDbEntity
  8
0
  6
Continuous
 62
     7
370
    25
100
AcDbLine
 10
-179.0840583919
 20
74.4549399391
 30
0.0
 11
-179.0840583919
 21
76.3415075085
 31
0.0
  0
LINE
  5
3A3
330
1F
100
AcDbEntity
  8
0
  6
Continuous
 62
     7
370
    25
100
AcDbLine
 10
-179.0840583919
 20
76.3415075085
 30
0.0
 11
-172.3340583919
 21
78.7983065898
 31
0.0
  0
LINE
  5
3A4
330
1F
100
AcDbEntity
  8
0
  6
Continuous
 62
     7
370
    25
100
AcDbLine
 10
-172.3340583919
 20
78.7983065898
 30
0.0
 11
-172.3340583919
 21
81.4229188078
 31
0.0
  0
LINE
  5
3A5
330
1F
100
AcDbEntity
  8
0
  6
Continuous
 62
     7
370
    25
100
AcDbLine
 10
-172.3340583919
 20
81.4229188078
 30
0.0
 11
-179.0840583919
 21
83.8797178891
 31
0.0
  0
LINE
  5
3A6
330
1F
100
AcDbEntity
  8
0
  6
Continuous
 62
     7
370
    25
100
AcDbLine
 10
-179.0840583919
 20
83.8797178891
 30
0.0
 11
-179.0840583919
 21
85.7662854585
 31
0.0
  0
LINE
  5
3A7
330
1F
100
AcDbEntity
  8
0
  6
Continuous
 62
     7
370
    25
100
AcDbLine
 10
-179.0840583919
 20
85.7662854585
 30
0.0
 11
-172.3340583919
 21
88.2230845398
 31
0.0
  0
LINE
  5
3A8
330
1F
100
AcDbEntity
  8
0
  6
Continuous
 62
     7
370
    25
100
AcDbLine
 10
-172.3340583919
 20
88.2230845398
 30
0.0
 11
-172.3340583919
 21
90.8476967578
 31
0.0
  0
LINE
  5
3A9
330
1F
100
AcDbEntity
  8
0
  6
Continuous
 62
     7
370
    25
100
AcDbLine
 10
-172.3340583919
 20
90.8476967578
 30
0.0
 11
-179.0840583919
 21
93.3044958391
 31
0.0
  0
LINE
  5
3AA
330
1F
100
AcDbEntity
  8
0
  6
Continuous
 62
     7
370
    25
100
AcDbLine
 10
-179.0840583919
 20
93.3044958391
 30
0.0
 11
-179.0840583919
 21
95.1910634085
 31
0.0
  0
LINE
  5
3AB
330
1F
100
AcDbEntity
  8
0
  6
Continuous
 62
     7
370
    25
100
AcDbLine
 10
-179.0840583919
 20
95.1910634085
 30
0.0
 11
-172.3340583919
 21
97.6478624898
 31
0.0
  0
LINE
  5
3AC
330
1F
100
AcDbEntity
  8
0
  6
Continuous
 62
     7
370
    25
100
AcDbLine
 10
-172.3340583919
 20
97.6478624898
 30
0.0
 11
-172.3340583919
 21
100.2724747078
 31
0.0
  0
LINE
  5
3AD
330
1F
100
AcDbEntity
  8
0
  6
Continuous
 62
     7
370
    25
100
AcDbLine
 10
-172.3340583919
 20
100.2724747078
 30
0.0
 11
-179.0840583919
 21
102.7292737891
 31
0.0
  0
LINE
  5
3AE
330
1F
100
AcDbEntity
  8
0
  6
Continuous
 62
     7
370
    25
100
AcDbLine
 10
-179.0840583919
 20
102.7292737891
 30
0.0
 11
-179.0840583919
 21
104.6158413585
 31
0.0
  0
LINE
  5
3AF
330
1F
100
AcDbEntity
  8
0
  6
Continuous
 62
     7
370
    25
100
AcDbLine
 10
-179.0840583919
 20
104.6158413585
 30
0.0
 11
-172.3340583919
 21
107.0726404398
 31
0.0
  0
LINE
  5
3B0
330
1F
100
AcDbEntity
  8
0
  6
Continuous
 62
     7
370
    25
100
AcDbLine
 10
-172.3340583919
 20
107.0726404398
 30
0.0
 11
-172.2907760285
 21
109.8742254739
 31
0.0
  0
LINE
  5
3B1
330
1F
100
AcDbEntity
  8
0
  6
Continuous
 62
     7
370
    25
100
AcDbLine
 10
-147.573337317
 20
134.5916641854
 30
0.0
 11
-144.7717522829
 21
134.6349465488
 31
0.0
  0
LINE
  5
3B2
330
1F
100
AcDbEntity
  8
0
  6
Continuous
 62
     7
370
    25
100
AcDbLine
 10
-144.7717522829
 20
134.6349465488
 30
0.0
 11
-142.3149532016
 21
141.3849465488
 31
0.0
  0
LINE
  5
3B3
330
1F
100
AcDbEntity
  8
0
  6
Continuous
 62
     7
370
    25
100
AcDbLine
 10
-142.3149532016
 20
141.3849465488
 30
0.0
 11
-140.4283856322
 21
141.3849465488
 31
0.0
  0
LINE
  5
3B4
330
1F
100
AcDbEntity
  8
0
  6
Continuous
 62
     7
370
    25
100
AcDbLine
 10
-140.4283856322
 20
141.3849465488
 30
0.0
 11
-137.9715865509
 21
134.6349465488
 31
0.0
  0
LINE
  5
3B5
330
1F
100
AcDbEntity
  8
0
  6
Continuous
 62
     7
370
    25
100
AcDbLine
 10
-137.9715865509
 20
134.6349465488
 30
0.0
 11
-135.3469743329
 21
134.6349465488
 31
0.0
  0
LINE
  5
3B6
330
1F
100
AcDbEntity
  8
0
  6
Continuous
 62
     7
370
    25
100
AcDbLine
 10
-135.3469743329
 20
134.6349465488
 30
0.0
 11
-132.8901752516
 21
141.3849465488
 31
0.0
  0
LINE
  5
3B7
330
1F
100
AcDbEntity
  8
0
  6
Continuous
 62
     7
370
    25
100
AcDbLine
 10
-132.8901752516
 20
141.3849465488
 30
0.0
 11
-131.0036076822
 21
141.3849465488
 31
0.0
  0
LINE
  5
3B8
330
1F
100
AcDbEntity
  8
0
  6
Continuous
 62
     7
370
    25
100
AcDbLine
 10
-131.0036076822
 20
141.3849465488
 30
0.0
 11
-128.5468086009
 21
134.6349465488
 31
0.0
  0
LINE
  5
3B9
330
1F
100
AcDbEntity
  8
0
  6
Continuous
 62
     7
370
    25
100
AcDbLine
 10
-128.5468086009
 20
134.6349465488
 30
0.0
 11
-125.9221963829
 21
134.6349465488
 31
0.0
  0
LINE
  5
3BA
330
1F
100
AcDbEntity
  8
0
  6
Continuous
 62
     7
370
    25
100
AcDbLine
 10
-125.9221963829
 20
134.6349465488
 30
0.0
 11
-123.4653973016
 21
141.3849465488
 31
0.0
  0
LINE
  5
3BB
330
1F
100
AcDbEntity
  8
0
  6
Continuous
 62
     7
370
    25
100
AcDbLine
 10
-123.4653973016
 20
141.3849465488
 30
0.0
 11
-121.5788297322
 21
141.3849465488
 31
0.0
  0
LINE
  5
3BC
330
1F
100
AcDbEntity
  8
0
  6
Continuous
 62
     7
370
    25
100
AcDbLine
 10
-121.5788297322
 20
141.3849465488
 30
0.0
 11
-119.1220306509
 21
134.6349465488
 31
0.0
  0
LINE
  5
3BD
330
1F
100
AcDbEntity
  8
0
  6
Continuous
 62
     7
370
    25
100
AcDbLine
 10
-119.1220306509
 20
134.6349465488
 30
0.0
 11
-116.4974184329
 21
134.6349465488
 31
0.0
  0
LINE
  5
3BE
330
1F
100
AcDbEntity
  8
0
  6
Continuous
 62
     7
370
    25
100
AcDbLine
 10
-116.4974184329
 20
134.6349465488
 30
0.0
 11
-114.0406193516
 21
141.3849465488
 31
0.0
  0
LINE
  5
3BF
330
1F
100
AcDbEntity
  8
0
  6
Continuous
 62
     7
370
    25
100
AcDbLine
 10
-114.0406193516
 20
141.3849465488
 30
0.0
 11
-112.1540517822
 21
141.3849465488
 31
0.0
  0
LINE
  5
3C0
330
1F
100
AcDbEntity
  8
0
  6
Continuous
 62
     7
370
    25
100
AcDbLine
 10
-112.1540517822
 20
141.3849465488
 30
0.0
 11
-109.6972527009
 21
134.6349465488
 31
0.0
  0
LINE
  5
3C1
330
1F
100
AcDbEntity
  8
0
  6
Continuous
 62
     7
370
    25
100
AcDbLine
 10
-109.6972527009
 20
134.6349465488
 30
0.0
 11
-107.0726404829
 21
134.6349465488
 31
0.0
  0
LINE
  5
3C2
330
1F
100
AcDbEntity
  8
0
  6
Continuous
 62
     7
370
    25
100
AcDbLine
 10
-107.0726404829
 20
134.6349465488
 30
0.0
 11
-104.6158414016
 21
141.3849465488
 31
0.0
  0
LINE
  5
3C3
330
1F
100
AcDbEntity
  8
0
  6
Continuous
 62
     7
370
    25
100
AcDbLine
 10
-104.6158414016
 20
141.3849465488
 30
0.0
 11
-102.7292738322
 21
141.3849465488
 31
0.0
  0
LINE
  5
3C4
330
1F
100
AcDbEntity
  8
0
  6
Continuous
 62
     7
370
    25
100
AcDbLine
 10
-102.7292738322
 20
141.3849465488
 30
0.0
 11
-100.2724747509
 21
134.6349465488
 31
0.0
  0
LINE
  5
3C5
330
1F
100
AcDbEntity
  8
0
  6
Continuous
 62
     7
370
    25
100
AcDbLine
 10
-100.2724747509
 20
134.6349465488
 30
0.0
 11
-97.6478625329
 21
134.6349465488
 31
0.0
  0
LINE
  5
3C6
330
1F
100
AcDbEntity
  8
0
  6
Continuous
 62
     7
370
    25
100
AcDbLine
 10
-97.6478625329
 20
134.6349465488
 30
0.0
 11
-95.1910634516
 21
141.3849465488
 31
0.0
  0
LINE
  5
3C7
330
1F
100
AcDbEntity
  8
0
  6
Continuous
 62
     7
370
    25
100
AcDbLine
 10
-95.1910634516
 20
141.3849465488
 30
0.0
 11
-93.3044958822
 21
141.3849465488
 31
0.0
  0
LINE
  5
3C8
330
1F
100
AcDbEntity
  8
0
  6
Continuous
 62
     7
370
    25
100
AcDbLine
 10
-93.3044958822
 20
141.3849465488
 30
0.0
 11
-90.8476968009
 21
134.6349465488
 31
0.0
  0
LINE
  5
3C9
330
1F
100
AcDbEntity
  8
0
  6
Continuous
 62
     7
370
    25
100
AcDbLine
 10
-90.8476968009
 20
134.6349465488
 30
0.0
 11
-88.2230845829
 21
134.6349465488
 31
0.0
  0
LINE
  5
3CA
330
1F
100
AcDbEntity
  8
0
  6
Continuous
 62
     7
370
    25
100
AcDbLine
 10
-88.2230845829
 20
134.6349465488
 30
0.0
 11
-85.7662855016
 21
141.3849465488
 31
0.0
  0
LINE
  5
3CB
330
1F
100
AcDbEntity
  8
0
  6
Continuous
 62
     7
370
    25
100
AcDbLine
 10
-85.7662855016
 20
141.3849465488
 30
0.0
 11
-83.8797179322
 21
141.3849465488
 31
0.0
  0
LINE
  5
3CC
330
1F
100
AcDbEntity
  8
0
  6
Continuous
 62
     7
370
    25
100
AcDbLine
 10
-83.8797179322
 20
141.3849465488
 30
0.0
 11
-81.4229188509
 21
134.6349465488
 31
0.0
  0
LINE
  5
3CD
330
1F
100
AcDbEntity
  8
0
  6
Continuous
 62
     7
370
    25
100
AcDbLine
 10
-81.4229188509
 20
134.6349465488
 30
0.0
 11
-78.7983066329
 21
134.6349465488
 31
0.0
  0
LINE
  5
3CE
330
1F
100
AcDbEntity
  8
0
  6
Continuous
 62
     7
370
    25
100
AcDbLine
 10
-78.7983066329
 20
134.6349465488
 30
0.0
 11
-76.3415075516
 21
141.3849465488
 31
0.0
  0
LINE
  5
3CF
330
1F
100
AcDbEntity
  8
0
  6
Continuous
 62
     7
370
    25
100
AcDbLine
 10
-76.3415075516
 20
141.3849465488
 30
0.0
 11
-74.4549399822
 21
141.3849465488
 31
0.0
  0
LINE
  5
3D0
330
1F
100
AcDbEntity
  8
0
  6
Continuous
 62
     7
370
    25
100
AcDbLine
 10
-74.4549399822
 20
141.3849465488
 30
0.0
 11
-71.9981409009
 21
134.6349465488
 31
0.0
  0
LINE
  5
3D1
330
1F
100
AcDbEntity
  8
0
  6
Continuous
 62
     7
370
    25
100
AcDbLine
 10
-71.9981409009
 20
134.6349465488
 30
0.0
 11
-69.3735286829
 21
134.6349465488
 31
0.0
  0
LINE
  5
3D2
330
1F
100
AcDbEntity
  8
0
  6
Continuous
 62
     7
370
    25
100
AcDbLine
 10
-69.3735286829
 20
134.6349465488
 30
0.0
 11
-66.9167296016
 21
141.3849465488
 31
0.0
  0
LINE
  5
3D3
330
1F
100
AcDbEntity
  8
0
  6
Continuous
 62
     7
370
    25
100
AcDbLine
 10
-66.9167296016
 20
141.3849465488
 30
0.0
 11
-65.0301620322
 21
141.3849465488
 31
0.0
  0
LINE
  5
3D4
330
1F
100
AcDbEntity
  8
0
  6
Continuous
 62
     7
370
    25
100
AcDbLine
 10
-65.0301620322
 20
141.3849465488
 30
0.0
 11
-62.5733629509
 21
134.6349465488
 31
0.0
  0
LINE
  5
3D5
330
1F
100
AcDbEntity
  8
0
  6
Continuous
 62
     7
370
    25
100
AcDbLine
 10
-62.5733629509
 20
134.6349465488
 30
0.0
 11
-59.9487507329
 21
134.6349465488
 31
0.0
  0
LINE
  5
3D6
330
1F
100
AcDbEntity
  8
0
  6
Continuous
 62
     7
370
    25
100
AcDbLine
 10
-59.9487507329
 20
134.6349465488
 30
0.0
 11
-57.4919516516
 21
141.3849465488
 31
0.0
  0
LINE
  5
3D7
330
1F
100
AcDbEntity
  8
0
  6
Continuous
 62
     7
370
    25
100
AcDbLine
 10
-57.4919516516
 20
141.3849465488
 30
0.0
 11
-55.6053840822
 21
141.3849465488
 31
0.0
  0
LINE
  5
3D8
330
1F
100
AcDbEntity
  8
0
  6
Continuous
 62
     7
370
    25
100
AcDbLine
 10
-55.6053840822
 20
141.3849465488
 30
0.0
 11
-53.1485850009
 21
134.6349465488
 31
0.0
  0
LINE
  5
3D9
330
1F
100
AcDbEntity
  8
0
  6
Continuous
 62
     7
370
    25
100
AcDbLine
 10
-53.1485850009
 20
134.6349465488
 30
0.0
 11
-50.5239727829
 21
134.6349465488
 31
0.0
  0
LINE
  5
3DA
330
1F
100
AcDbEntity
  8
0
  6
Continuous
 62
     7
370
    25
100
AcDbLine
 10
-50.5239727829
 20
134.6349465488
 30
0.0
 11
-48.0671737016
 21
141.3849465488
 31
0.0
  0
LINE
  5
3DB
330
1F
100
AcDbEntity
  8
0
  6
Continuous
 62
     7
370
    25
100
AcDbLine
 10
-48.0671737016
 20
141.3849465488
 30
0.0
 11
-46.1806061322
 21
141.3849465488
 31
0.0
  0
LINE
  5
3DC
330
1F
100
AcDbEntity
  8
0
  6
Continuous
 62
     7
370
    25
100
AcDbLine
 10
-46.1806061322
 20
141.3849465488
 30
0.0
 11
-43.7238070509
 21
134.6349465488
 31
0.0
  0
LINE
  5
3DD
330
1F
100
AcDbEntity
  8
0
  6
Continuous
 62
     7
370
    25
100
AcDbLine
 10
-43.7238070509
 20
134.6349465488
 30
0.0
 11
-41.0991948329
 21
134.6349465488
 31
0.0
  0
LINE
  5
3DE
330
1F
100
AcDbEntity
  8
0
  6
Continuous
 62
     7
370
    25
100
AcDbLine
 10
-41.0991948329
 20
134.6349465488
 30
0.0
 11
-38.6423957516
 21
141.3849465488
 31
0.0
  0
LINE
  5
3DF
330
1F
100
AcDbEntity
  8
0
  6
Continuous
 62
     7
370
    25
100
AcDbLine
 10
-38.6423957516
 20
141.3849465488
 30
0.0
 11
-36.7558281822
 21
141.3849465488
 31
0.0
  0
LINE
  5
3E0
330
1F
100
AcDbEntity
  8
0
  6
Continuous
 62
     7
370
    25
100
AcDbLine
 10
-36.7558281822
 20
141.3849465488
 30
0.0
 11
-34.2990291009
 21
134.6349465488
 31
0.0
  0
LINE
  5
3E1
330
1F
100
AcDbEntity
  8
0
  6
Continuous
 62
     7
370
    25
100
AcDbLine
 10
-34.2990291009
 20
134.6349465488
 30
0.0
 11
-31.6744168829
 21
134.6349465488
 31
0.0
  0
LINE
  5
3E2
330
1F
100
AcDbEntity
  8
0
  6
Continuous
 62
     7
370
    25
100
AcDbLine
 10
-31.6744168829
 20
134.6349465488
 30
0.0
 11
-29.2176178016
 21
141.3849465488
 31
0.0
  0
LINE
  5
3E3
330
1F
100
AcDbEntity
  8
0
  6
Continuous
 62
     7
370
    25
100
AcDbLine
 10
-29.2176178016
 20
141.3849465488
 30
0.0
 11
-27.3310502322
 21
141.3849465488
 31
0.0
  0
LINE
  5
3E4
330
1F
100
AcDbEntity
  8
0
  6
Continuous
 62
     7
370
    25
100
AcDbLine
 10
-27.3310502322
 20
141.3849465488
 30
0.0
 11
-24.8742511509
 21
134.6349465488
 31
0.0
  0
LINE
  5
3E5
330
1F
100
AcDbEntity
  8
0
  6
Continuous
 62
     7
370
    25
100
AcDbLine
 10
-24.8742511509
 20
134.6349465488
 30
0.0
 11
-22.2496389329
 21
134.6349465488
 31
0.0
  0
LINE
  5
3E6
330
1F
100
AcDbEntity
  8
0
  6
Continuous
 62
     7
370
    25
100
AcDbLine
 10
-22.2496389329
 20
134.6349465488
 30
0.0
 11
-19.7928398516
 21
141.3849465488
 31
0.0
  0
LINE
  5
3E7
330
1F
100
AcDbEntity
  8
0
  6
Continuous
 62
     7
370
    25
100
AcDbLine
 10
-19.7928398516
 20
141.3849465488
 30
0.0
 11
-17.9062722822
 21
141.3849465488
 31
0.0
  0
LINE
  5
3E8
330
1F
100
AcDbEntity
  8
0
  6
Continuous
 62
     7
370
    25
100
AcDbLine
 10
-17.9062722822
 20
141.3849465488
 30
0.0
 11
-15.4494732009
 21
134.6349465488
 31
0.0
  0
LINE
  5
3E9
330
1F
100
AcDbEntity
  8
0
  6
Continuous
 62
     7
370
    25
100
AcDbLine
 10
-15.4494732009
 20
134.6349465488
 30
0.0
 11
-12.8248609829
 21
134.6349465488
 31
0.0
  0
LINE
  5
3EA
330
1F
100
AcDbEntity
  8
0
  6
Continuous
 62
     7
370
    25
100
AcDbLine
 10
-12.8248609829
 20
134.6349465488
 30
0.0
 11
-10.3680619016
 21
141.3849465488
 31
0.0
  0
LINE
  5
3EB
330
1F
100
AcDbEntity
  8
0
  6
Continuous
 62
     7
370
    25
100
AcDbLine
 10
-10.3680619016
 20
141.3849465488
 30
0.0
 11
-8.4814943322
 21
141.3849465488
 31
0.0
  0
LINE
  5
3EC
330
1F
100
AcDbEntity
  8
0
  6
Continuous
 62
     7
370
    25
100
AcDbLine
 10
-8.4814943322
 20
141.3849465488
 30
0.0
 11
-6.0246952509
 21
134.6349465488
 31
0.0
  0
LINE
  5
3ED
330
1F
100
AcDbEntity
  8
0
  6
Continuous
 62
     7
370
    25
100
AcDbLine
 10
-6.0246952509
 20
134.6349465488
 30
0.0
 11
-3.4000830329
 21
134.6349465488
 31
0.0
  0
LINE
  5
3EE
330
1F
100
AcDbEntity
  8
0
  6
Continuous
 62
     7
370
    25
100
AcDbLine
 10
-3.4000830329
 20
134.6349465488
 30
0.0
 11
-0.9432839516
 21
141.3849465488
 31
0.0
  0
LINE
  5
3EF
330
1F
100
AcDbEntity
  8
0
  6
Continuous
 62
     7
370
    25
100
AcDbLine
 10
179.0840583919
 20
-0.9432839085
 30
0.0
 11
172.3340583919
 21
-3.4000829898
 31
0.0
  0
LINE
  5
3F0
330
1F
100
AcDbEntity
  8
0
  6
Continuous
 62
     7
370
    25
100
AcDbLine
 10
3.4000830329
 20
134.6349465488
 30
0.0
 11
0.9432839516
 21
141.3849465488
 31
0.0
  0
LINE
  5
3F1
330
1F
100
AcDbEntity
  8
0
  6
Continuous
 62
     7
370
    25
100
AcDbLine
 10
6.0246952509
 20
134.6349465488
 30
0.0
 11
3.4000830329
 21
134.6349465488
 31
0.0
  0
LINE
  5
3F2
330
1F
100
AcDbEntity
  8
0
  6
Continuous
 62
     7
370
    25
100
AcDbLine
 10
8.4814943322
 20
141.3849465488
 30
0.0
 11
6.0246952509
 21
134.6349465488
 31
0.0
  0
LINE
  5
3F3
330
1F
100
AcDbEntity
  8
0
  6
Continuous
 62
     7
370
    25
100
AcDbLine
 10
10.3680619016
 20
141.3849465488
 30
0.0
 11
8.4814943322
 21
141.3849465488
 31
0.0
  0
LINE
  5
3F4
330
1F
100
AcDbEntity
  8
0
  6
Continuous
 62
     7
370
    25
100
AcDbLine
 10
12.8248609829
 20
134.6349465488
 30
0.0
 11
10.3680619016
 21
141.3849465488
 31
0.0
  0
LINE
  5
3F5
330
1F
100
AcDbEntity
  8
0
  6
Continuous
 62
     7
370
    25
100
AcDbLine
 10
15.4494732009
 20
134.6349465488
 30
0.0
 11
12.8248609829
 21
134.6349465488
 31
0.0
  0
LINE
  5
3F6
330
1F
100
AcDbEntity
  8
0
  6
Continuous
 62
     7
370
    25
100
AcDbLine
 10
17.9062722822
 20
141.3849465488
 30
0.0
 11
15.4494732009
 21
134.6349465488
 31
0.0
  0
LINE
  5
3F7
330
1F
100
AcDbEntity
  8
0
  6
Continuous
 62
     7
370
    25
100
AcDbLine
 10
19.7928398516
 20
141.3849465488
 30
0.0
 11
17.9062722822
 21
141.3849465488
 31
0.0
  0
LINE
  5
3F8
330
1F
100
AcDbEntity
  8
0
  6
Continuous
 62
     7
370
    25
100
AcDbLine
 10
22.2496389329
 20
134.6349465488
 30
0.0
 11
19.7928398516
 21
141.3849465488
 31
0.0
  0
LINE
  5
3F9
330
1F
100
AcDbEntity
  8
0
  6
Continuous
 62
     7
370
    25
100
AcDbLine
 10
24.8742511509
 20
134.6349465488
 30
0.0
 11
22.2496389329
 21
134.6349465488
 31
0.0
  0
LINE
  5
3FA
330
1F
100
AcDbEntity
  8
0
  6
Continuous
 62
     7
370
    25
100
AcDbLine
 10
27.3310502322
 20
141.3849465488
 30
0.0
 11
24.8742511509
 21
134.6349465488
 31
0.0
  0
LINE
  5
3FB
330
1F
100
AcDbEntity
  8
0
  6
Continuous
 62
     7
370
    25
100
AcDbLine
 10
29.2176178016
 20
141.3849465488
 30
0.0
 11
27.3310502322
 21
141.3849465488
 31
0.0
  0
LINE
  5
3FC
330
1F
100
AcDbEntity
  8
0
  6
Continuous
 62
     7
370
    25
100
AcDbLine
 10
31.6744168829
 20
134.6349465488
 30
0.0
 11
29.2176178016
 21
141.3849465488
 31
0.0
  0
LINE
  5
3FD
330
1F
100
AcDbEntity
  8
0
  6
Continuous
 62
     7
370
    25
100
AcDbLine
 10
34.2990291009
 20
134.6349465488
 30
0.0
 11
31.6744168829
 21
134.6349465488
 31
0.0
  0
LINE
  5
3FE
330
1F
100
AcDbEntity
  8
0
  6
Continuous
 62
     7
370
    25
100
AcDbLine
 10
36.7558281822
 20
141.3849465488
 30
0.0
 11
34.2990291009
 21
134.6349465488
 31
0.0
  0
LINE
  5
3FF
330
1F
100
AcDbEntity
  8
0
  6
Continuous
 62
     7
370
    25
100
AcDbLine
 10
38.6423957516
 20
141.3849465488
 30
0.0
 11
36.7558281822
 21
141.3849465488
 31
0.0
  0
LINE
  5
400
330
1F
100
AcDbEntity
  8
0
  6
Continuous
 62
     7
370
    25
100
AcDbLine
 10
41.0991948329
 20
134.6349465488
 30
0.0
 11
38.6423957516
 21
141.3849465488
 31
0.0
  0
LINE
  5
401
330
1F
100
AcDbEntity
  8
0
  6
Continuous
 62
     7
370
    25
100
AcDbLine
 10
43.7238070509
 20
134.6349465488
 30
0.0
 11
41.0991948329
 21
134.6349465488
 31
0.0
  0
LINE
  5
402
330
1F
100
AcDbEntity
  8
0
  6
Continuous
 62
     7
370
    25
100
AcDbLine
 10
46.1806061322
 20
141.3849465488
 30
0.0
 11
43.7238070509
 21
134.6349465488
 31
0.0
  0
LINE
  5
403
330
1F
100
AcDbEntity
  8
0
  6
Continuous
 62
     7
370
    25
100
AcDbLine
 10
48.0671737016
 20
141.3849465488
 30
0.0
 11
46.1806061322
 21
141.3849465488
 31
0.0
  0
LINE
  5
404
330
1F
100
AcDbEntity
  8
0
  6
Continuous
 62
     7
370
    25
100
AcDbLine
 10
50.5239727829
 20
134.6349465488
 30
0.0
 11
48.0671737016
 21
141.3849465488
 31
0.0
  0
LINE
  5
405
330
1F
100
AcDbEntity
  8
0
  6
Continuous
 62
     7
370
    25
100
AcDbLine
 10
53.1485850009
 20
134.6349465488
 30
0.0
 11
50.5239727829
 21
134.6349465488
 31
0.0
  0
LINE
  5
406
330
1F
100
AcDbEntity
  8
0
  6
Continuous
 62
     7
370
    25
100
AcDbLine
 10
55.6053840822
 20
141.3849465488
 30
0.0
 11
53.1485850009
 21
134.6349465488
 31
0.0
  0
LINE
  5
407
330
1F
100
AcDbEntity
  8
0
  6
Continuous
 62
     7
370
    25
100
AcDbLine
 10
57.4919516516
 20
141.3849465488
 30
0.0
 11
55.6053840822
 21
141.3849465488
 31
0.0
  0
LINE
  5
408
330
1F
100
AcDbEntity
  8
0
  6
Continuous
 62
     7
370
    25
100
AcDbLine
 10
59.9487507329
 20
134.6349465488
 30
0.0
 11
57.4919516516
 21
141.3849465488
 31
0.0
  0
LINE
  5
409
330
1F
100
AcDbEntity
  8
0
  6
Continuous
 62
     7
370
    25
100
AcDbLine
 10
62.5733629509
 20
134.6349465488
 30
0.0
 11
59.9487507329
 21
134.6349465488
 31
0.0
  0
LINE
  5
40A
330
1F
100
AcDbEntity
  8
0
  6
Continuous
 62
     7
370
    25
100
AcDbLine
 10
65.0301620322
 20
141.3849465488
 30
0.0
 11
62.5733629509
 21
134.6349465488
 31
0.0
  0
LINE
  5
40B
330
1F
100
AcDbEntity
  8
0
  6
Continuous
 62
     7
370
    25
100
AcDbLine
 10
66.9167296016
 20
141.3849465488
 30
0.0
 11
65.0301620322
 21
141.3849465488
 31
0.0
  0
LINE
  5
40C
330
1F
100
AcDbEntity
  8
0
  6
Continuous
 62
     7
370
    25
100
AcDbLine
 10
69.3735286829
 20
134.6349465488
 30
0.0
 11
66.9167296016
 21
141.3849465488
 31
0.0
  0
LINE
  5
40D
330
1F
100
AcDbEntity
  8
0
  6
Continuous
 62
     7
370
    25
100
AcDbLine
 10
71.9981409009
 20
134.6349465488
 30
0.0
 11
69.3735286829
 21
134.6349465488
 31
0.0
  0
LINE
  5
40E
330
1F
100
AcDbEntity
  8
0
  6
Continuous
 62
     7
370
    25
100
AcDbLine
 10
74.4549399822
 20
141.3849465488
 30
0.0
 11
71.9981409009
 21
134.6349465488
 31
0.0
  0
LINE
  5
40F
330
1F
100
AcDbEntity
  8
0
  6
Continuous
 62
     7
370
    25
100
AcDbLine
 10
76.3415075516
 20
141.3849465488
 30
0.0
 11
74.4549399822
 21
141.3849465488
 31
0.0
  0
LINE
  5
410
330
1F
100
AcDbEntity
  8
0
  6
Continuous
 62
     7
370
    25
100
AcDbLine
 10
78.7983066329
 20
134.6349465488
 30
0.0
 11
76.3415075516
 21
141.3849465488
 31
0.0
  0
LINE
  5
411
330
1F
100
AcDbEntity
  8
0
  6
Continuous
 62
     7
370
    25
100
AcDbLine
 10
81.4229188509
 20
134.6349465488
 30
0.0
 11
78.7983066329
 21
134.6349465488
 31
0.0
  0
LINE
  5
412
330
1F
100
AcDbEntity
  8
0
  6
Continuous
 62
     7
370
    25
100
AcDbLine
 10
83.8797179322
 20
141.3849465488
 30
0.0
 11
81.4229188509
 21
134.6349465488
 31
0.0
  0
LINE
  5
413
330
1F
100
AcDbEntity
  8
0
  6
Continuous
 62
     7
370
    25
100
AcDbLine
 10
85.7662855016
 20
141.3849465488
 30
0.0
 11
83.8797179322
 21
141.3849465488
 31
0.0
  0
LINE
  5
414
330
1F
100
AcDbEntity
  8
0
  6
Continuous
 62
     7
370
    25
100
AcDbLine
 10
88.2230845829
 20
134.6349465488
 30
0.0
 11
85.7662855016
 21
141.3849465488
 31
0.0
  0
LINE
  5
415
330
1F
100
AcDbEntity
  8
0
  6
Continuous
 62
     7
370
    25
100
AcDbLine
 10
90.8476968009
 20
134.6349465488
 30
0.0
 11
88.2230845829
 21
134.6349465488
 31
0.0
  0
LINE
  5
416
330
1F
100
AcDbEntity
  8
0
  6
Continuous
 62
     7
370
    25
100
AcDbLine
 10
93.3044958822
 20
141.3849465488
 30
0.0
 11
90.8476968009
 21
134.6349465488
 31
0.0
  0
LINE
  5
417
330
1F
100
AcDbEntity
  8
0
  6
Continuous
 62
     7
370
    25
100
AcDbLine
 10
95.1910634516
 20
141.3849465488
 30
0.0
 11
93.3044958822
 21
141.3849465488
 31
0.0
  0
LINE
  5
418
330
1F
100
AcDbEntity
  8
0
  6
Continuous
 62
     7
370
    25
100
AcDbLine
 10
97.6478625329
 20
134.6349465488
 30
0.0
 11
95.1910634516
 21
141.3849465488
 31
0.0
  0
LINE
  5
419
330
1F
100
AcDbEntity
  8
0
  6
Continuous
 62
     7
370
    25
100
AcDbLine
 10
100.2724747509
 20
134.6349465488
 30
0.0
 11
97.6478625329
 21
134.6349465488
 31
0.0
  0
LINE
  5
41A
330
1F
100
AcDbEntity
  8
0
  6
Continuous
 62
     7
370
    25
100
AcDbLine
 10
102.7292738322
 20
141.3849465488
 30
0.0
 11
100.2724747509
 21
134.6349465488
 31
0.0
  0
LINE
  5
41B
330
1F
100
AcDbEntity
  8
0
  6
Continuous
 62
     7
370
    25
100
AcDbLine
 10
104.6158414016
 20
141.3849465488
 30
0.0
 11
102.7292738322
 21
141.3849465488
 31
0.0
  0
LINE
  5
41C
330
1F
100
AcDbEntity
  8
0
  6
Continuous
 62
     7
370
    25
100
AcDbLine
 10
107.0726404829
 20
134.6349465488
 30
0.0
 11
104.6158414016
 21
141.3849465488
 31
0.0
  0
LINE
  5
41D
330
1F
100
AcDbEntity
  8
0
  6
Continuous
 62
     7
370
    25
100
AcDbLine
 10
109.6972527009
 20
134.6349465488
 30
0.0
 11
107.0726404829
 21
134.6349465488
 31
0.0
  0
LINE
  5
41E
330
1F
100
AcDbEntity
  8
0
  6
Continuous
 62
     7
370
    25
100
AcDbLine
 10
112.1540517822
 20
141.3849465488
 30
0.0
 11
109.6972527009
 21
134.6349465488
 31
0.0
  0
LINE
  5
41F
330
1F
100
AcDbEntity
  8
0
  6
Continuous
 62
     7
370
    25
100
AcDbLine
 10
114.0406193516
 20
141.3849465488
 30
0.0
 11
112.1540517822
 21
141.3849465488
 31
0.0
  0
LINE
  5
420
330
1F
100
AcDbEntity
  8
0
  6
Continuous
 62
     7
370
    25
100
AcDbLine
 10
116.4974184329
 20
134.6349465488
 30
0.0
 11
114.0406193516
 21
141.3849465488
 31
0.0
  0
LINE
  5
421
330
1F
100
AcDbEntity
  8
0
  6
Continuous
 62
     7
370
    25
100
AcDbLine
 10
119.1220306509
 20
134.6349465488
 30
0.0
 11
116.4974184329
 21
134.6349465488
 31
0.0
  0
LINE
  5
422
330
1F
100
AcDbEntity
  8
0
  6
Continuous
 62
     7
370
    25
100
AcDbLine
 10
121.5788297322
 20
141.3849465488
 30
0.0
 11
119.1220306509
 21
134.6349465488
 31
0.0
  0
LINE
  5
423
330
1F
100
AcDbEntity
  8
0
  6
Continuous
 62
     7
370
    25
100
AcDbLine
 10
123.4653973016
 20
141.3849465488
 30
0.0
 11
121.5788297322
 21
141.3849465488
 31
0.0
  0
LINE
  5
424
330
1F
100
AcDbEntity
  8
0
  6
Continuous
 62
     7
370
    25
100
AcDbLine
 10
125.9221963829
 20
134.6349465488
 30
0.0
 11
123.4653973016
 21
141.3849465488
 31
0.0
  0
LINE
  5
425
330
1F
100
AcDbEntity
  8
0
  6
Continuous
 62
     7
370
    25
100
AcDbLine
 10
128.5468086009
 20
134.6349465488
 30
0.0
 11
125.9221963829
 21
134.6349465488
 31
0.0
  0
LINE
  5
426
330
1F
100
AcDbEntity
  8
0
  6
Continuous
 62
     7
370
    25
100
AcDbLine
 10
131.0036076822
 20
141.3849465488
 30
0.0
 11
128.5468086009
 21
134.6349465488
 31
0.0
  0
LINE
  5
427
330
1F
100
AcDbEntity
  8
0
  6
Continuous
 62
     7
370
    25
100
AcDbLine
 10
132.8901752516
 20
141.3849465488
 30
0.0
 11
131.0036076822
 21
141.3849465488
 31
0.0
  0
LINE
  5
428
330
1F
100
AcDbEntity
  8
0
  6
Continuous
 62
     7
370
    25
100
AcDbLine
 10
135.3469743329
 20
134.6349465488
 30
0.0
 11
132.8901752516
 21
141.3849465488
 31
0.0
  0
LINE
  5
429
330
1F
100
AcDbEntity
  8
0
  6
Continuous
 62
     7
370
    25
100
AcDbLine
 10
137.9715865509
 20
134.6349465488
 30
0.0
 11
135.3469743329
 21
134.6349465488
 31
0.0
  0
LINE
  5
42A
330
1F
100
AcDbEntity
  8
0
  6
Continuous
 62
     7
370
    25
100
AcDbLine
 10
140.4283856322
 20
141.3849465488
 30
0.0
 11
137.9715865509
 21
134.6349465488
 31
0.0
  0
LINE
  5
42B
330
1F
100
AcDbEntity
  8
0
  6
Continuous
 62
     7
370
    25
100
AcDbLine
 10
142.3149532016
 20
141.3849465488
 30
0.0
 11
140.4283856322
 21
141.3849465488
 31
0.0
  0
LINE
  5
42C
330
1F
100
AcDbEntity
  8
0
  6
Continuous
 62
     7
370
    25
100
AcDbLine
 10
144.7717522829
 20
134.6349465488
 30
0.0
 11
142.3149532016
 21
141.3849465488
 31
0.0
  0
LINE
  5
42D
330
1F
100
AcDbEntity
  8
0
  6
Continuous
 62
     7
370
    25
100
AcDbLine
 10
147.573337317
 20
134.5916641854
 30
0.0
 11
144.7717522829
 21
134.6349465488
 31
0.0
  0
LINE
  5
42E
330
1F
100
AcDbEntity
  8
0
  6
Continuous
 62
     7
370
    25
100
AcDbLine
 10
172.3340583919
 20
107.0726404398
 30
0.0
 11
172.2907760285
 21
109.8742254739
 31
0.0
  0
LINE
  5
42F
330
1F
100
AcDbEntity
  8
0
  6
Continuous
 62
     7
370
    25
100
AcDbLine
 10
179.0840583919
 20
104.6158413585
 30
0.0
 11
172.3340583919
 21
107.0726404398
 31
0.0
  0
LINE
  5
430
330
1F
100
AcDbEntity
  8
0
  6
Continuous
 62
     7
370
    25
100
AcDbLine
 10
179.0840583919
 20
102.7292737891
 30
0.0
 11
179.0840583919
 21
104.6158413585
 31
0.0
  0
LINE
  5
431
330
1F
100
AcDbEntity
  8
0
  6
Continuous
 62
     7
370
    25
100
AcDbLine
 10
172.3340583919
 20
100.2724747078
 30
0.0
 11
179.0840583919
 21
102.7292737891
 31
0.0
  0
LINE
  5
432
330
1F
100
AcDbEntity
  8
0
  6
Continuous
 62
     7
370
    25
100
AcDbLine
 10
172.3340583919
 20
97.6478624898
 30
0.0
 11
172.3340583919
 21
100.2724747078
 31
0.0
  0
LINE
  5
433
330
1F
100
AcDbEntity
  8
0
  6
Continuous
 62
     7
370
    25
100
AcDbLine
 10
179.0840583919
 20
95.1910634085
 30
0.0
 11
172.3340583919
 21
97.6478624898
 31
0.0
  0
LINE
  5
434
330
1F
100
AcDbEntity
  8
0
  6
Continuous
 62
     7
370
    25
100
AcDbLine
 10
179.0840583919
 20
93.3044958391
 30
0.0
 11
179.0840583919
 21
95.1910634085
 31
0.0
  0
LINE
  5
435
330
1F
100
AcDbEntity
  8
0
  6
Continuous
 62
     7
370
    25
100
AcDbLine
 10
172.3340583919
 20
90.8476967578
 30
0.0
 11
179.0840583919
 21
93.3044958391
 31
0.0
  0
LINE
  5
436
330
1F
100
AcDbEntity
  8
0
  6
Continuous
 62
     7
370
    25
100
AcDbLine
 10
172.3340583919
 20
88.2230845398
 30
0.0
 11
172.3340583919
 21
90.8476967578
 31
0.0
  0
LINE
  5
437
330
1F
100
AcDbEntity
  8
0
  6
Continuous
 62
     7
370
    25
100
AcDbLine
 10
179.0840583919
 20
85.7662854585
 30
0.0
 11
172.3340583919
 21
88.2230845398
 31
0.0
  0
LINE
  5
438
330
1F
100
AcDbEntity
  8
0
  6
Continuous
 62
     7
370
    25
100
AcDbLine
 10
179.0840583919
 20
83.8797178891
 30
0.0
 11
179.0840583919
 21
85.7662854585
 31
0.0
  0
LINE
  5
439
330
1F
100
AcDbEntity
  8
0
  6
Continuous
 62
     7
370
    25
100
AcDbLine
 10
172.3340583919
 20
81.4229188078
 30
0.0
 11
179.0840583919
 21
83.8797178891
 31
0.0
  0
LINE
  5
43A
330
1F
100
AcDbEntity
  8
0
  6
Continuous
 62
     7
370
    25
100
AcDbLine
 10
172.3340583919
 20
78.7983065898
 30
0.0
 11
172.3340583919
 21
81.4229188078
 31
0.0
  0
LINE
  5
43B
330
1F
100
AcDbEntity
  8
0
  6
Continuous
 62
     7
370
    25
100
AcDbLine
 10
179.0840583919
 20
76.3415075085
 30
0.0
 11
172.3340583919
 21
78.7983065898
 31
0.0
  0
LINE
  5
43C
330
1F
100
AcDbEntity
  8
0
  6
Continuous
 62
     7
370
    25
100
AcDbLine
 10
179.0840583919
 20
74.4549399391
 30
0.0
 11
179.0840583919
 21
76.3415075085
 31
0.0
  0
LINE
  5
43D
330
1F
100
AcDbEntity
  8
0
  6
Continuous
 62
     7
370
    25
100
AcDbLine
 10
172.3340583919
 20
71.9981408578
 30
0.0
 11
179.0840583919
 21
74.4549399391
 31
0.0
  0
LINE
  5
43E
330
1F
100
AcDbEntity
  8
0
  6
Continuous
 62
     7
370
    25
100
AcDbLine
 10
172.3340583919
 20
69.3735286398
 30
0.0
 11
172.3340583919
 21
71.9981408578
 31
0.0
  0
LINE
  5
43F
330
1F
100
AcDbEntity
  8
0
  6
Continuous
 62
     7
370
    25
100
AcDbLine
 10
179.0840583919
 20
66.9167295585
 30
0.0
 11
172.3340583919
 21
69.3735286398
 31
0.0
  0
LINE
  5
440
330
1F
100
AcDbEntity
  8
0
  6
Continuous
 62
     7
370
    25
100
AcDbLine
 10
179.0840583919
 20
65.0301619891
 30
0.0
 11
179.0840583919
 21
66.9167295585
 31
0.0
  0
LINE
  5
441
330
1F
100
AcDbEntity
  8
0
  6
Continuous
 62
     7
370
    25
100
AcDbLine
 10
172.3340583919
 20
62.5733629078
 30
0.0
 11
179.0840583919
 21
65.0301619891
 31
0.0
  0
LINE
  5
442
330
1F
100
AcDbEntity
  8
0
  6
Continuous
 62
     7
370
    25
100
AcDbLine
 10
172.3340583919
 20
59.9487506898
 30
0.0
 11
172.3340583919
 21
62.5733629078
 31
0.0
  0
LINE
  5
443
330
1F
100
AcDbEntity
  8
0
  6
Continuous
 62
     7
370
    25
100
AcDbLine
 10
179.0840583919
 20
57.4919516085
 30
0.0
 11
172.3340583919
 21
59.9487506898
 31
0.0
  0
LINE
  5
444
330
1F
100
AcDbEntity
  8
0
  6
Continuous
 62
     7
370
    25
100
AcDbLine
 10
179.0840583919
 20
55.6053840391
 30
0.0
 11
179.0840583919
 21
57.4919516085
 31
0.0
  0
LINE
  5
445
330
1F
100
AcDbEntity
  8
0
  6
Continuous
 62
     7
370
    25
100
AcDbLine
 10
172.3340583919
 20
53.1485849578
 30
0.0
 11
179.0840583919
 21
55.6053840391
 31
0.0
  0
LINE
  5
446
330
1F
100
AcDbEntity
  8
0
  6
Continuous
 62
     7
370
    25
100
AcDbLine
 10
172.3340583919
 20
50.5239727398
 30
0.0
 11
172.3340583919
 21
53.1485849578
 31
0.0
  0
LINE
  5
447
330
1F
100
AcDbEntity
  8
0
  6
Continuous
 62
     7
370
    25
100
AcDbLine
 10
179.0840583919
 20
48.0671736585
 30
0.0
 11
172.3340583919
 21
50.5239727398
 31
0.0
  0
LINE
  5
448
330
1F
100
AcDbEntity
  8
0
  6
Continuous
 62
     7
370
    25
100
AcDbLine
 10
179.0840583919
 20
46.1806060891
 30
0.0
 11
179.0840583919
 21
48.0671736585
 31
0.0
  0
LINE
  5
449
330
1F
100
AcDbEntity
  8
0
  6
Continuous
 62
     7
370
    25
100
AcDbLine
 10
172.3340583919
 20
43.7238070078
 30
0.0
 11
179.0840583919
 21
46.1806060891
 31
0.0
  0
LINE
  5
44A
330
1F
100
AcDbEntity
  8
0
  6
Continuous
 62
     7
370
    25
100
AcDbLine
 10
172.3340583919
 20
41.0991947898
 30
0.0
 11
172.3340583919
 21
43.7238070078
 31
0.0
  0
LINE
  5
44B
330
1F
100
AcDbEntity
  8
0
  6
Continuous
 62
     7
370
    25
100
AcDbLine
 10
179.0840583919
 20
38.6423957085
 30
0.0
 11
172.3340583919
 21
41.0991947898
 31
0.0
  0
LINE
  5
44C
330
1F
100
AcDbEntity
  8
0
  6
Continuous
 62
     7
370
    25
100
AcDbLine
 10
179.0840583919
 20
36.7558281391
 30
0.0
 11
179.0840583919
 21
38.6423957085
 31
0.0
  0
LINE
  5
44D
330
1F
100
AcDbEntity
  8
0
  6
Continuous
 62
     7
370
    25
100
AcDbLine
 10
172.3340583919
 20
34.2990290578
 30
0.0
 11
179.0840583919
 21
36.7558281391
 31
0.0
  0
LINE
  5
44E
330
1F
100
AcDbEntity
  8
0
  6
Continuous
 62
     7
370
    25
100
AcDbLine
 10
172.3340583919
 20
31.6744168398
 30
0.0
 11
172.3340583919
 21
34.2990290578
 31
0.0
  0
LINE
  5
44F
330
1F
100
AcDbEntity
  8
0
  6
Continuous
 62
     7
370
    25
100
AcDbLine
 10
179.0840583919
 20
29.2176177585
 30
0.0
 11
172.3340583919
 21
31.6744168398
 31
0.0
  0
LINE
  5
450
330
1F
100
AcDbEntity
  8
0
  6
Continuous
 62
     7
370
    25
100
AcDbLine
 10
179.0840583919
 20
27.3310501891
 30
0.0
 11
179.0840583919
 21
29.2176177585
 31
0.0
  0
LINE
  5
451
330
1F
100
AcDbEntity
  8
0
  6
Continuous
 62
     7
370
    25
100
AcDbLine
 10
172.3340583919
 20
24.8742511078
 30
0.0
 11
179.0840583919
 21
27.3310501891
 31
0.0
  0
LINE
  5
452
330
1F
100
AcDbEntity
  8
0
  6
Continuous
 62
     7
370
    25
100
AcDbLine
 10
172.3340583919
 20
22.2496388898
 30
0.0
 11
172.3340583919
 21
24.8742511078
 31
0.0
  0
LINE
  5
453
330
1F
100
AcDbEntity
  8
0
  6
Continuous
 62
     7
370
    25
100
AcDbLine
 10
179.0840583919
 20
19.7928398085
 30
0.0
 11
172.3340583919
 21
22.2496388898
 31
0.0
  0
LINE
  5
454
330
1F
100
AcDbEntity
  8
0
  6
Continuous
 62
     7
370
    25
100
AcDbLine
 10
179.0840583919
 20
17.9062722391
 30
0.0
 11
179.0840583919
 21
19.7928398085
 31
0.0
  0
LINE
  5
455
330
1F
100
AcDbEntity
  8
0
  6
Continuous
 62
     7
370
    25
100
AcDbLine
 10
172.3340583919
 20
15.4494731578
 30
0.0
 11
179.0840583919
 21
17.9062722391
 31
0.0
  0
LINE
  5
456
330
1F
100
AcDbEntity
  8
0
  6
Continuous
 62
     7
370
    25
100
AcDbLine
 10
172.3340583919
 20
12.8248609398
 30
0.0
 11
172.3340583919
 21
15.4494731578
 31
0.0
  0
LINE
  5
457
330
1F
100
AcDbEntity
  8
0
  6
Continuous
 62
     7
370
    25
100
AcDbLine
 10
179.0840583919
 20
10.3680618585
 30
0.0
 11
172.3340583919
 21
12.8248609398
 31
0.0
  0
LINE
  5
458
330
1F
100
AcDbEntity
  8
0
  6
Continuous
 62
     7
370
    25
100
AcDbLine
 10
179.0840583919
 20
8.4814942891
 30
0.0
 11
179.0840583919
 21
10.3680618585
 31
0.0
  0
LINE
  5
459
330
1F
100
AcDbEntity
  8
0
  6
Continuous
 62
     7
370
    25
100
AcDbLine
 10
172.3340583919
 20
6.0246952078
 30
0.0
 11
179.0840583919
 21
8.4814942891
 31
0.0
  0
LINE
  5
45A
330
1F
100
AcDbEntity
  8
0
  6
Continuous
 62
     7
370
    25
100
AcDbLine
 10
172.3340583919
 20
3.4000829898
 30
0.0
 11
172.3340583919
 21
6.0246952078
 31
0.0
  0
LINE
  5
45B
330
1F
100
AcDbEntity
  8
0
  6
Continuous
 62
     7
370
    25
100
AcDbLine
 10
179.0840583919
 20
0.9432839085
 30
0.0
 11
172.3340583919
 21
3.4000829898
 31
0.0
  0
LINE
  5
45C
330
1F
100
AcDbEntity
  8
0
  6
Continuous
 62
     7
370
    25
100
AcDbLine
 10
179.0840583919
 20
-0.9432839085
 30
0.0
 11
179.0840583919
 21
0.9432839085
 31
0.0
  0
LINE
  5
45D
330
1F
100
AcDbEntity
  8
0
  6
Continuous
 62
     7
370
    25
100
AcDbLine
 10
0.9432839516
 20
141.3849465488
 30
0.0
 11
-0.9432839516
 21
141.3849465488
 31
0.0
  0
ARC
  5
45E
330
1F
100
AcDbEntity
  8
0
  6
Continuous
 62
     7
370
    25
100
AcDbCircle
 10
125.5
 20
-98.3849465488
 30
0.0
 40
4.999999999999986
100
AcDbArc
 50
90.0
 51
270.0
  0
ARC
  5
45F
330
1F
100
AcDbEntity
  8
0
  6
Continuous
 62
     7
370
    25
100
AcDbCircle
 10
150.5
 20
-98.3849465488
 30
0.0
 40
5.0
100
AcDbArc
 50
270.0
 51
90.0
  0
ARC
  5
460
330
1F
100
AcDbEntity
  8
0
  6
Continuous
 62
     7
370
    25
100
AcDbCircle
 10
-150.5
 20
-98.3849465488
 30
0.0
 40
5.000000000000014
100
AcDbArc
 50
90.0
 51
270.0
  0
ARC
  5
461
330
1F
100
AcDbEntity
  8
0
  6
Continuous
 62
     7
370
    25
100
AcDbCircle
 10
-125.5
 20
-98.3849465488
 30
0.0
 40
5.000000000000014
100
AcDbArc
 50
270.0
 51
90.0
  0
ARC
  5
462
330
1F
100
AcDbEntity
  8
0
  6
Continuous
 62
     7
370
    25
100
AcDbCircle
 10
-19.5
 20
-98.3849465488
 30
0.0
 40
5.0
100
AcDbArc
 50
90.0
 51
270.0
  0
ARC
  5
463
330
1F
100
AcDbEntity
  8
0
  6
Continuous
 62
     7
370
    25
100
AcDbCircle
 10
5.5
 20
-98.3849465488
 30
0.0
 40
5.0
100
AcDbArc
 50
270.0
 51
90.0
  0
ARC
  5
464
330
1F
100
AcDbEntity
  8
0
  6
Continuous
 62
     7
370
    25
100
AcDbCircle
 10
125.5
 20
98.3849465488
 30
0.0
 40
4.999999999999986
100
AcDbArc
 50
90.0
 51
270.0
  0
ARC
  5
465
330
1F
100
AcDbEntity
  8
0
  6
Continuous
 62
     7
370
    25
100
AcDbCircle
 10
150.5
 20
98.3849465488
 30
0.0
 40
5.0
100
AcDbArc
 50
270.0
 51
90.0
  0
ARC
  5
466
330
1F
100
AcDbEntity
  8
0
  6
Continuous
 62
     7
370
    25
100
AcDbCircle
 10
-150.5
 20
98.3849465488
 30
0.0
 40
5.000000000000014
100
AcDbArc
 50
90.0
 51
270.0
  0
ARC
  5
467
330
1F
100
AcDbEntity
  8
0
  6
Continuous
 62
     7
370
    25
100
AcDbCircle
 10
-125.5
 20
98.3849465488
 30
0.0
 40
5.000000000000014
100
AcDbArc
 50
270.0
 51
90.0
  0
ARC
  5
468
330
1F
100
AcDbEntity
  8
0
  6
Continuous
 62
     7
370
    25
100
AcDbCircle
 10
-19.5
 20
98.3849465488
 30
0.0
 40
5.0
100
AcDbArc
 50
90.0
 51
270.0
  0
ARC
  5
469
330
1F
100
AcDbEntity
  8
0
  6
Continuous
 62
     7
370
    25
100
AcDbCircle
 10
5.5
 20
98.3849465488
 30
0.0
 40
5.0
100
AcDbArc
 50
270.0
 51
90.0
  0
ARC
  5
46A
330
1F
100
AcDbEntity
  8
0
  6
Continuous
 62
     7
370
    25
100
AcDbCircle
 10
150.5
 20
0.0
 30
0.0
 40
5.000000000000062
100
AcDbArc
 50
270.0
 51
90.0
  0
ARC
  5
46B
330
1F
100
AcDbEntity
  8
0
  6
Continuous
 62
     7
370
    25
100
AcDbCircle
 10
125.5
 20
0.0
 30
0.0
 40
5.000000000000054
100
AcDbArc
 50
90.0
 51
270.0
  0
ARC
  5
46C
330
1F
100
AcDbEntity
  8
0
  6
Continuous
 62
     7
370
    25
100
AcDbCircle
 10
-150.5
 20
0.0
 30
0.0
 40
5.000000000000058
100
AcDbArc
 50
90.0
 51
270.0
  0
ARC
  5
46D
330
1F
100
AcDbEntity
  8
0
  6
Continuous
 62
     7
370
    25
100
AcDbCircle
 10
-125.5
 20
0.0
 30
0.0
 40
5.000000000000065
100
AcDbArc
 50
270.0
 51
90.0
  0
ARC
  5
46E
330
1F
100
AcDbEntity
  8
0
  6
Continuous
 62
     7
370
    25
100
AcDbCircle
 10
170.8830093409
 20
-121.7913640966
 30
0.0
 40
12.0000000000002
100
AcDbArc
 50
48.770719661
 51
83.2628952109
  0
ARC
  5
46F
330
1F
100
AcDbEntity
  8
0
  6
Continuous
 62
     7
370
    25
100
AcDbCircle
 10
146.0840583918
 20
-108.3849465488
 30
0.0
 40
33.0000000000938
100
AcDbArc
 50
349.6298107276
 51
352.3701892724
  0
ARC
  5
470
330
1F
100
AcDbEntity
  8
0
  6
Continuous
 62
     7
370
    25
100
AcDbCircle
 10
173.8120731452
 20
-103.2979830658
 30
0.0
 40
11.99999999999997
100
AcDbArc
 50
258.7371047891
 51
293.229280339
  0
ARC
  5
471
330
1F
100
AcDbEntity
  8
0
  6
Continuous
 62
     7
370
    25
100
AcDbCircle
 10
146.0840583919
 20
-108.3849465489
 30
0.0
 40
26.24899999998683
100
AcDbArc
 50
338.7474858785
 51
345.2525141215
  0
ARC
  5
472
330
1F
100
AcDbEntity
  8
0
  6
Continuous
 62
     7
370
    25
100
AcDbCircle
 10
165.5264514333
 20
-128.7985046037
 30
0.0
 40
11.9999999999998
100
AcDbArc
 50
30.770719661
 51
65.2628952109
  0
ARC
  5
473
330
1F
100
AcDbEntity
  8
0
  6
Continuous
 62
     7
370
    25
100
AcDbCircle
 10
146.084058392
 20
-108.3849465489
 30
0.0
 40
32.99999999996599
100
AcDbArc
 50
331.6298107276
 51
334.3701892724
  0
ARC
  5
474
330
1F
100
AcDbEntity
  8
0
  6
Continuous
 62
     7
370
    25
100
AcDbCircle
 10
174.026925673
 20
-112.1153845591
 30
0.0
 40
12.00000000000002
100
AcDbArc
 50
240.7371047891
 51
275.229280339
  0
ARC
  5
475
330
1F
100
AcDbEntity
  8
0
  6
Continuous
 62
     7
370
    25
100
AcDbCircle
 10
146.0840583919
 20
-108.3849465488
 30
0.0
 40
26.24899999999693
100
AcDbArc
 50
320.7474858785
 51
327.2525141215
  0
ARC
  5
476
330
1F
100
AcDbEntity
  8
0
  6
Continuous
 62
     7
370
    25
100
AcDbCircle
 10
158.2667366317
 20
-133.8074238188
 30
0.0
 40
12.00000000000014
100
AcDbArc
 50
12.770719661
 51
47.2628952109
  0
ARC
  5
477
330
1F
100
AcDbEntity
  8
0
  6
Continuous
 62
     7
370
    25
100
AcDbCircle
 10
146.0840583919
 20
-108.3849465489
 30
0.0
 40
32.99999999999108
100
AcDbArc
 50
313.6298107276
 51
316.3701892724
  0
ARC
  5
478
330
1F
100
AcDbEntity
  8
0
  6
Continuous
 62
     7
370
    25
100
AcDbCircle
 10
171.5065356619
 20
-120.5676247886
 30
0.0
 40
12.0000000000003
100
AcDbArc
 50
222.7371047891
 51
257.229280339
  0
ARC
  5
479
330
1F
100
AcDbEntity
  8
0
  6
Continuous
 62
     7
370
    25
100
AcDbCircle
 10
146.0840583919
 20
-108.3849465488
 30
0.0
 40
26.24900000000661
100
AcDbArc
 50
302.7474858785
 51
309.2525141215
  0
ARC
  5
47A
330
1F
100
AcDbEntity
  8
0
  6
Continuous
 62
     7
370
    25
100
AcDbCircle
 10
149.8144964022
 20
-136.3278138299
 30
0.0
 40
11.99999999999936
100
AcDbArc
 50
354.770719661
 51
29.2628952109
  0
ARC
  5
47B
330
1F
100
AcDbEntity
  8
0
  6
Continuous
 62
     7
370
    25
100
AcDbCircle
 10
146.0840583919
 20
-108.3849465489
 30
0.0
 40
32.99999999995845
100
AcDbArc
 50
295.6298107276
 51
298.3701892724
  0
ARC
  5
47C
330
1F
100
AcDbEntity
  8
0
  6
Continuous
 62
     7
370
    25
100
AcDbCircle
 10
166.4976164468
 20
-127.8273395902
 30
0.0
 40
12.00000000000041
100
AcDbArc
 50
204.7371047891
 51
239.229280339
  0
ARC
  5
47D
330
1F
100
AcDbEntity
  8
0
  6
Continuous
 62
     7
370
    25
100
AcDbCircle
 10
146.0840583919
 20
-108.3849465488
 30
0.0
 40
26.24900000001159
100
AcDbArc
 50
284.7474858785
 51
291.2525141215
  0
ARC
  5
47E
330
1F
100
AcDbEntity
  8
0
  6
Continuous
 62
     7
370
    25
100
AcDbCircle
 10
140.9970949089
 20
-136.1129613021
 30
0.0
 40
11.99999999999984
100
AcDbArc
 50
336.770719661
 51
11.2628952109
  0
ARC
  5
47F
330
1F
100
AcDbEntity
  8
0
  6
Continuous
 62
     7
370
    25
100
AcDbCircle
 10
146.0840583919
 20
-108.3849465488
 30
0.0
 40
33.00000000003949
100
AcDbArc
 50
277.6298107276
 51
280.3701892724
  0
ARC
  5
480
330
1F
100
AcDbEntity
  8
0
  6
Continuous
 62
     7
370
    25
100
AcDbCircle
 10
159.4904759397
 20
-133.1838974978
 30
0.0
 40
12.00000000000053
100
AcDbArc
 50
186.7371047891
 51
221.229280339
  0
ARC
  5
481
330
1F
100
AcDbEntity
  8
0
  6
Continuous
 62
     7
370
    25
100
AcDbCircle
 10
-159.4904759397
 20
-133.1838974978
 30
0.0
 40
12.00000000000053
100
AcDbArc
 50
318.770719661
 51
353.2628952109
  0
ARC
  5
482
330
1F
100
AcDbEntity
  8
0
  6
Continuous
 62
     7
370
    25
100
AcDbCircle
 10
-146.0840583919
 20
-108.3849465488
 30
0.0
 40
33.00000000003949
100
AcDbArc
 50
259.6298107276
 51
262.3701892724
  0
ARC
  5
483
330
1F
100
AcDbEntity
  8
0
  6
Continuous
 62
     7
370
    25
100
AcDbCircle
 10
-140.9970949089
 20
-136.1129613021
 30
0.0
 40
11.99999999999985
100
AcDbArc
 50
168.7371047891
 51
203.229280339
  0
ARC
  5
484
330
1F
100
AcDbEntity
  8
0
  6
Continuous
 62
     7
370
    25
100
AcDbCircle
 10
-146.0840583919
 20
-108.3849465488
 30
0.0
 40
26.24900000001157
100
AcDbArc
 50
248.7474858785
 51
255.2525141215
  0
ARC
  5
485
330
1F
100
AcDbEntity
  8
0
  6
Continuous
 62
     7
370
    25
100
AcDbCircle
 10
-166.4976164468
 20
-127.8273395902
 30
0.0
 40
12.00000000000042
100
AcDbArc
 50
300.770719661
 51
335.2628952109
  0
ARC
  5
486
330
1F
100
AcDbEntity
  8
0
  6
Continuous
 62
     7
370
    25
100
AcDbCircle
 10
-146.0840583919
 20
-108.3849465489
 30
0.0
 40
32.99999999995846
100
AcDbArc
 50
241.6298107276
 51
244.3701892724
  0
ARC
  5
487
330
1F
100
AcDbEntity
  8
0
  6
Continuous
 62
     7
370
    25
100
AcDbCircle
 10
-149.8144964022
 20
-136.3278138299
 30
0.0
 40
11.99999999999935
100
AcDbArc
 50
150.7371047891
 51
185.229280339
  0
ARC
  5
488
330
1F
100
AcDbEntity
  8
0
  6
Continuous
 62
     7
370
    25
100
AcDbCircle
 10
-146.0840583919
 20
-108.3849465488
 30
0.0
 40
26.24900000000663
100
AcDbArc
 50
230.7474858785
 51
237.2525141215
  0
ARC
  5
489
330
1F
100
AcDbEntity
  8
0
  6
Continuous
 62
     7
370
    25
100
AcDbCircle
 10
-171.5065356619
 20
-120.5676247886
 30
0.0
 40
12.00000000000031
100
AcDbArc
 50
282.770719661
 51
317.2628952109
  0
ARC
  5
48A
330
1F
100
AcDbEntity
  8
0
  6
Continuous
 62
     7
370
    25
100
AcDbCircle
 10
-146.0840583919
 20
-108.3849465489
 30
0.0
 40
32.99999999999106
100
AcDbArc
 50
223.6298107276
 51
226.3701892724
  0
ARC
  5
48B
330
1F
100
AcDbEntity
  8
0
  6
Continuous
 62
     7
370
    25
100
AcDbCircle
 10
-158.2667366317
 20
-133.8074238188
 30
0.0
 40
12.00000000000014
100
AcDbArc
 50
132.7371047891
 51
167.229280339
  0
ARC
  5
48C
330
1F
100
AcDbEntity
  8
0
  6
Continuous
 62
     7
370
    25
100
AcDbCircle
 10
-146.0840583919
 20
-108.3849465488
 30
0.0
 40
26.24899999999696
100
AcDbArc
 50
212.7474858785
 51
219.2525141215
  0
ARC
  5
48D
330
1F
100
AcDbEntity
  8
0
  6
Continuous
 62
     7
370
    25
100
AcDbCircle
 10
-174.026925673
 20
-112.1153845591
 30
0.0
 40
12.00000000000002
100
AcDbArc
 50
264.770719661
 51
299.2628952109
  0
ARC
  5
48E
330
1F
100
AcDbEntity
  8
0
  6
Continuous
 62
     7
370
    25
100
AcDbCircle
 10
-146.084058392
 20
-108.3849465489
 30
0.0
 40
32.99999999996601
100
AcDbArc
 50
205.6298107276
 51
208.3701892724
  0
ARC
  5
48F
330
1F
100
AcDbEntity
  8
0
  6
Continuous
 62
     7
370
    25
100
AcDbCircle
 10
-165.5264514333
 20
-128.7985046037
 30
0.0
 40
11.9999999999998
100
AcDbArc
 50
114.7371047891
 51
149.229280339
  0
ARC
  5
490
330
1F
100
AcDbEntity
  8
0
  6
Continuous
 62
     7
370
    25
100
AcDbCircle
 10
-146.0840583919
 20
-108.3849465489
 30
0.0
 40
26.24899999998682
100
AcDbArc
 50
194.7474858785
 51
201.2525141215
  0
ARC
  5
491
330
1F
100
AcDbEntity
  8
0
  6
Continuous
 62
     7
370
    25
100
AcDbCircle
 10
-173.8120731452
 20
-103.2979830658
 30
0.0
 40
11.99999999999998
100
AcDbArc
 50
246.770719661
 51
281.2628952109
  0
ARC
  5
492
330
1F
100
AcDbEntity
  8
0
  6
Continuous
 62
     7
370
    25
100
AcDbCircle
 10
-146.0840583918
 20
-108.3849465488
 30
0.0
 40
33.00000000009381
100
AcDbArc
 50
187.6298107276
 51
190.3701892724
  0
ARC
  5
493
330
1F
100
AcDbEntity
  8
0
  6
Continuous
 62
     7
370
    25
100
AcDbCircle
 10
-170.8830093409
 20
-121.7913640966
 30
0.0
 40
12.0000000000002
100
AcDbArc
 50
96.7371047891
 51
131.229280339
  0
ARC
  5
494
330
1F
100
AcDbEntity
  8
0
  6
Continuous
 62
     7
370
    25
100
AcDbCircle
 10
-170.8830093409
 20
121.7913640966
 30
0.0
 40
12.0000000000002
100
AcDbArc
 50
228.770719661
 51
263.2628952109
  0
ARC
  5
495
330
1F
100
AcDbEntity
  8
0
  6
Continuous
 62
     7
370
    25
100
AcDbCircle
 10
-146.0840583918
 20
108.3849465488
 30
0.0
 40
33.0000000000938
100
AcDbArc
 50
169.6298107276
 51
172.3701892724
  0
ARC
  5
496
330
1F
100
AcDbEntity
  8
0
  6
Continuous
 62
     7
370
    25
100
AcDbCircle
 10
-173.8120731452
 20
103.2979830658
 30
0.0
 40
11.99999999999998
100
AcDbArc
 50
78.7371047891
 51
113.229280339
  0
ARC
  5
497
330
1F
100
AcDbEntity
  8
0
  6
Continuous
 62
     7
370
    25
100
AcDbCircle
 10
-146.0840583919
 20
108.3849465489
 30
0.0
 40
26.24899999998682
100
AcDbArc
 50
158.7474858785
 51
165.2525141215
  0
ARC
  5
498
330
1F
100
AcDbEntity
  8
0
  6
Continuous
 62
     7
370
    25
100
AcDbCircle
 10
-165.5264514333
 20
128.7985046037
 30
0.0
 40
11.9999999999998
100
AcDbArc
 50
210.770719661
 51
245.2628952109
  0
ARC
  5
499
330
1F
100
AcDbEntity
  8
0
  6
Continuous
 62
     7
370
    25
100
AcDbCircle
 10
-146.084058392
 20
108.3849465489
 30
0.0
 40
32.99999999996598
100
AcDbArc
 50
151.6298107276
 51
154.3701892724
  0
ARC
  5
49A
330
1F
100
AcDbEntity
  8
0
  6
Continuous
 62
     7
370
    25
100
AcDbCircle
 10
-174.026925673
 20
112.1153845591
 30
0.0
 40
12.00000000000002
100
AcDbArc
 50
60.7371047891
 51
95.229280339
  0
ARC
  5
49B
330
1F
100
AcDbEntity
  8
0
  6
Continuous
 62
     7
370
    25
100
AcDbCircle
 10
-146.0840583919
 20
108.3849465488
 30
0.0
 40
26.24899999999694
100
AcDbArc
 50
140.7474858785
 51
147.2525141215
  0
ARC
  5
49C
330
1F
100
AcDbEntity
  8
0
  6
Continuous
 62
     7
370
    25
100
AcDbCircle
 10
-158.2667366317
 20
133.8074238188
 30
0.0
 40
12.00000000000012
100
AcDbArc
 50
192.770719661
 51
227.2628952109
  0
ARC
  5
49D
330
1F
100
AcDbEntity
  8
0
  6
Continuous
 62
     7
370
    25
100
AcDbCircle
 10
-146.0840583919
 20
108.3849465489
 30
0.0
 40
32.99999999999109
100
AcDbArc
 50
133.6298107276
 51
136.3701892724
  0
ARC
  5
49E
330
1F
100
AcDbEntity
  8
0
  6
Continuous
 62
     7
370
    25
100
AcDbCircle
 10
-171.5065356619
 20
120.5676247886
 30
0.0
 40
12.00000000000031
100
AcDbArc
 50
42.7371047891
 51
77.229280339
  0
ARC
  5
49F
330
1F
100
AcDbEntity
  8
0
  6
Continuous
 62
     7
370
    25
100
AcDbCircle
 10
-146.0840583919
 20
108.3849465488
 30
0.0
 40
26.24900000000661
100
AcDbArc
 50
122.7474858785
 51
129.2525141215
  0
ARC
  5
4A0
330
1F
100
AcDbEntity
  8
0
  6
Continuous
 62
     7
370
    25
100
AcDbCircle
 10
-149.8144964022
 20
136.3278138299
 30
0.0
 40
11.99999999999935
100
AcDbArc
 50
174.770719661
 51
209.2628952109
  0
ARC
  5
4A1
330
1F
100
AcDbEntity
  8
0
  6
Continuous
 62
     7
370
    25
100
AcDbCircle
 10
-146.0840583919
 20
108.3849465489
 30
0.0
 40
32.99999999995847
100
AcDbArc
 50
115.6298107276
 51
118.3701892724
  0
ARC
  5
4A2
330
1F
100
AcDbEntity
  8
0
  6
Continuous
 62
     7
370
    25
100
AcDbCircle
 10
-166.4976164468
 20
127.8273395902
 30
0.0
 40
12.00000000000041
100
AcDbArc
 50
24.7371047891
 51
59.229280339
  0
ARC
  5
4A3
330
1F
100
AcDbEntity
  8
0
  6
Continuous
 62
     7
370
    25
100
AcDbCircle
 10
-146.0840583919
 20
108.3849465488
 30
0.0
 40
26.2490000000116
100
AcDbArc
 50
104.7474858785
 51
111.2525141215
  0
ARC
  5
4A4
330
1F
100
AcDbEntity
  8
0
  6
Continuous
 62
     7
370
    25
100
AcDbCircle
 10
-140.9970949089
 20
136.1129613021
 30
0.0
 40
11.99999999999985
100
AcDbArc
 50
156.770719661
 51
191.2628952109
  0
ARC
  5
4A5
330
1F
100
AcDbEntity
  8
0
  6
Continuous
 62
     7
370
    25
100
AcDbCircle
 10
-146.0840583919
 20
108.3849465488
 30
0.0
 40
33.00000000003949
100
AcDbArc
 50
97.6298107276
 51
100.3701892724
  0
ARC
  5
4A6
330
1F
100
AcDbEntity
  8
0
  6
Continuous
 62
     7
370
    25
100
AcDbCircle
 10
-159.4904759397
 20
133.1838974978
 30
0.0
 40
12.00000000000053
100
AcDbArc
 50
6.7371047891
 51
41.229280339
  0
ARC
  5
4A7
330
1F
100
AcDbEntity
  8
0
  6
Continuous
 62
     7
370
    25
100
AcDbCircle
 10
159.4904759397
 20
133.1838974978
 30
0.0
 40
12.00000000000053
100
AcDbArc
 50
138.770719661
 51
173.2628952109
  0
ARC
  5
4A8
330
1F
100
AcDbEntity
  8
0
  6
Continuous
 62
     7
370
    25
100
AcDbCircle
 10
146.0840583919
 20
108.3849465488
 30
0.0
 40
33.00000000003949
100
AcDbArc
 50
79.6298107276
 51
82.3701892724
  0
ARC
  5
4A9
330
1F
100
AcDbEntity
  8
0
  6
Continuous
 62
     7
370
    25
100
AcDbCircle
 10
140.9970949089
 20
136.1129613021
 30
0.0
 40
11.99999999999985
100
AcDbArc
 50
348.7371047891
 51
23.229280339
  0
ARC
  5
4AA
330
1F
100
AcDbEntity
  8
0
  6
Continuous
 62
     7
370
    25
100
AcDbCircle
 10
146.0840583919
 20
108.3849465488
 30
0.0
 40
26.2490000000116
100
AcDbArc
 50
68.7474858785
 51
75.2525141215
  0
ARC
  5
4AB
330
1F
100
AcDbEntity
  8
0
  6
Continuous
 62
     7
370
    25
100
AcDbCircle
 10
166.4976164468
 20
127.8273395902
 30
0.0
 40
12.00000000000041
100
AcDbArc
 50
120.770719661
 51
155.2628952109
  0
ARC
  5
4AC
330
1F
100
AcDbEntity
  8
0
  6
Continuous
 62
     7
370
    25
100
AcDbCircle
 10
146.0840583919
 20
108.3849465489
 30
0.0
 40
32.99999999995847
100
AcDbArc
 50
61.6298107276
 51
64.3701892724
  0
ARC
  5
4AD
330
1F
100
AcDbEntity
  8
0
  6
Continuous
 62
     7
370
    25
100
AcDbCircle
 10
149.8144964022
 20
136.3278138299
 30
0.0
 40
11.99999999999935
100
AcDbArc
 50
330.7371047891
 51
5.229280339
  0
ARC
  5
4AE
330
1F
100
AcDbEntity
  8
0
  6
Continuous
 62
     7
370
    25
100
AcDbCircle
 10
146.0840583919
 20
108.3849465488
 30
0.0
 40
26.24900000000661
100
AcDbArc
 50
50.7474858785
 51
57.2525141215
  0
ARC
  5
4AF
330
1F
100
AcDbEntity
  8
0
  6
Continuous
 62
     7
370
    25
100
AcDbCircle
 10
171.5065356619
 20
120.5676247886
 30
0.0
 40
12.00000000000031
100
AcDbArc
 50
102.770719661
 51
137.2628952109
  0
ARC
  5
4B0
330
1F
100
AcDbEntity
  8
0
  6
Continuous
 62
     7
370
    25
100
AcDbCircle
 10
146.0840583919
 20
108.3849465489
 30
0.0
 40
32.99999999999109
100
AcDbArc
 50
43.6298107276
 51
46.3701892724
  0
ARC
  5
4B1
330
1F
100
AcDbEntity
  8
0
  6
Continuous
 62
     7
370
    25
100
AcDbCircle
 10
158.2667366317
 20
133.8074238188
 30
0.0
 40
12.00000000000016
100
AcDbArc
 50
312.7371047891
 51
347.229280339
  0
ARC
  5
4B2
330
1F
100
AcDbEntity
  8
0
  6
Continuous
 62
     7
370
    25
100
AcDbCircle
 10
146.0840583919
 20
108.3849465488
 30
0.0
 40
26.24899999999694
100
AcDbArc
 50
32.7474858785
 51
39.2525141215
  0
ARC
  5
4B3
330
1F
100
AcDbEntity
  8
0
  6
Continuous
 62
     7
370
    25
100
AcDbCircle
 10
174.026925673
 20
112.1153845591
 30
0.0
 40
12.00000000000002
100
AcDbArc
 50
84.770719661
 51
119.2628952109
  0
ARC
  5
4B4
330
1F
100
AcDbEntity
  8
0
  6
Continuous
 62
     7
370
    25
100
AcDbCircle
 10
146.084058392
 20
108.3849465489
 30
0.0
 40
32.99999999996598
100
AcDbArc
 50
25.6298107276
 51
28.3701892724
  0
ARC
  5
4B5
330
1F
100
AcDbEntity
  8
0
  6
Continuous
 62
     7
370
    25
100
AcDbCircle
 10
165.5264514333
 20
128.7985046037
 30
0.0
 40
11.9999999999998
100
AcDbArc
 50
294.7371047891
 51
329.229280339
  0
ARC
  5
4B6
330
1F
100
AcDbEntity
  8
0
  6
Continuous
 62
     7
370
    25
100
AcDbCircle
 10
146.0840583919
 20
108.3849465489
 30
0.0
 40
26.24899999998682
100
AcDbArc
 50
14.7474858785
 51
21.2525141215
  0
ARC
  5
4B7
330
1F
100
AcDbEntity
  8
0
  6
Continuous
 62
     7
370
    25
100
AcDbCircle
 10
173.8120731452
 20
103.2979830658
 30
0.0
 40
11.99999999999998
100
AcDbArc
 50
66.770719661
 51
101.2628952109
  0
ARC
  5
4B8
330
1F
100
AcDbEntity
  8
0
  6
Continuous
 62
     7
370
    25
100
AcDbCircle
 10
146.0840583918
 20
108.3849465488
 30
0.0
 40
33.0000000000938
100
AcDbArc
 50
7.6298107276
 51
10.3701892724
  0
ARC
  5
4B9
330
1F
100
AcDbEntity
  8
0
  6
Continuous
 62
     7
370
    25
100
AcDbCircle
 10
170.8830093409
 20
121.7913640966
 30
0.0
 40
12.0000000000002
100
AcDbArc
 50
276.7371047891
 51
311.229280339
  0
ENDSEC
  0
SECTION
  2
OBJECTS
  0
DICTIONARY
  5
C
330
0
100
AcDbDictionary
281
     1
  3
ACAD_GROUP
350
D
  3
ACAD_LAYOUT
350
1A
  3
ACAD_MLINESTYLE
350
17
  3
ACAD_PLOTSETTINGS
350
19
  3
ACAD_PLOTSTYLENAME
350
E
  3
ACAD_SCALELIST
350
47
  0
DICTIONARY
  5
D
102
{ACAD_REACTORS
330
C
102
}
330
C
100
AcDbDictionary
281
     1
  0
DICTIONARY
  5
1A
102
{ACAD_REACTORS
330
C
102
}
330
C
100
AcDbDictionary
281
     1
  3
Layout1
350
1E
  3
Layout2
350
26
  3
Model
350
22
  0
DICTIONARY
  5
17
102
{ACAD_REACTORS
330
C
102
}
330
C
100
AcDbDictionary
281
     1
  3
Standard
350
18
  0
DICTIONARY
  5
19
102
{ACAD_REACTORS
330
C
102
}
330
C
100
AcDbDictionary
281
     1
  0
ACDBDICTIONARYWDFLT
  5
E
102
{ACAD_REACTORS
330
C
102
}
330
C
100
AcDbDictionary
281
     1
  3
Normal
350
F
100
AcDbDictionaryWithDefault
340
F
  0
DICTIONARY
  5
47
102
{ACAD_REACTORS
330
C
102
}
330
C
100
AcDbDictionary
281
     1
  3
A0
350
48
  3
A1
350
49
  3
A2
350
4A
  3
A3
350
4B
  3
A4
350
4C
  3
A5
350
4D
  3
A6
350
4E
  3
A7
350
4F
  3
A8
350
50
  3
A9
350
51
  3
B0
350
52
  3
B1
350
53
  3
B2
350
54
  3
B3
350
55
  3
B4
350
56
  3
B5
350
57
  3
B6
350
58
  3
B7
350
59
  3
B8
350
5A
  3
B9
350
5B
  3
C0
350
5C
  3
C1
350
5D
  3
C2
350
5E
  3
C3
350
5F
  3
C4
350
60
  3
C5
350
61
  3
C6
350
62
  3
C7
350
63
  3
C8
350
64
  3
C9
350
65
  3
D0
350
66
  3
D1
350
67
  3
D2
350
68
  0
LAYOUT
  5
1E
102
{ACAD_REACTORS
330
1A
102
}
330
1A
100
AcDbPlotSettings
  1

  2
none_device
  4

  6

 40
0.0
 41
0.0
 42
0.0
 43
0.0
 44
0.0
 45
0.0
 46
0.0
 47
0.0
 48
0.0
 49
0.0
140
0.0
141
0.0
142
1.0
143
1.0
 70
   688
 72
     1
 73
     0
 74
     5
  7

 75
    16
147
1.0
148
0.0
149
0.0
100
AcDbLayout
  1
Layout1
 70
     1
 71
     1
 10
0.0
 20
0.0
 11
420.0
 21
297.0
 12
0.0
 22
0.0
 32
0.0
 14
1.0000000000E+20
 24
1.0000000000E+20
 34
1.0000000000E+20
 15
-1.0000000000E+20
 25
-1.0000000000E+20
 35
-1.0000000000E+20
146
0.0
 13
0.0
 23
0.0
 33
0.0
 16
1.0
 26
0.0
 36
0.0
 17
0.0
 27
1.0
 37
0.0
 76
     0
330
1B
  0
LAYOUT
  5
26
102
{ACAD_REACTORS
330
1A
102
}
330
1A
100
AcDbPlotSettings
  1

  2
none_device
  4

  6

 40
0.0
 41
0.0
 42
0.0
 43
0.0
 44
0.0
 45
0.0
 46
0.0
 47
0.0
 48
0.0
 49
0.0
140
0.0
141
0.0
142
1.0
143
1.0
 70
   688
 72
     1
 73
     0
 74
     5
  7

 75
    16
147
1.0
148
0.0
149
0.0
100
AcDbLayout
  1
Layout2
 70
     1
 71
     2
 10
0.0
 20
0.0
 11
0.0
 21
0.0
 12
0.0
 22
0.0
 32
0.0
 14
0.0
 24
0.0
 34
0.0
 15
0.0
 25
0.0
 35
0.0
146
0.0
 13
0.0
 23
0.0
 33
0.0
 16
1.0
 26
0.0
 36
0.0
 17
0.0
 27
1.0
 37
0.0
 76
     0
330
23
  0
LAYOUT
  5
22
102
{ACAD_REACTORS
330
1A
102
}
330
1A
100
AcDbPlotSettings
  1

  2
none_device
  4
ANSI_A_(11.00_x_8.50_Inches)
  6

 40
6.35
 41
19.05
 42
6.35000508
 43
19.05000254
 44
279.4
 45
215.9
 46
133.34999746
 47
88.89999873
 48
0.0
 49
0.0
140
0.0
141
0.0
142
0.0297591795
143
1.0
 70
  1696
 72
     0
 73
     0
 74
     0
  7

 75
     0
147
0.0179189148
148
-1300.4909072572
149
0.0
100
AcDbLayout
  1
Model
 70
     1
 71
     0
 10
0.0
 20
0.0
 11
420.0
 21
297.0
 12
0.0
 22
0.0
 32
0.0
 14
-179.0840583919
 24
-141.3849465488
 34
0.0
 15
179.0840583919
 25
141.3849465488
 35
0.0
146
0.0
 13
0.0
 23
0.0
 33
0.0
 16
1.0
 26
0.0
 36
0.0
 17
0.0
 27
1.0
 37
0.0
 76
     0
330
1F
331
29
  0
MLINESTYLE
  5
18
102
{ACAD_REACTORS
330
17
102
}
330
17
100
AcDbMlineStyle
  2
Standard
 70
     0
  3

 62
   256
 51
90.0
 52
90.0
 71
     2
 49
0.5
 62
   256
  6
BYLAYER
 49
-0.5
 62
   256
  6
BYLAYER
  0
ACDBPLACEHOLDER
  5
F
102
{ACAD_REACTORS
330
E
102
}
330
E
  0
SCALE
  5
48
102
{ACAD_REACTORS
330
47
102
}
330
47
100
AcDbScale
 70
     0
300
1:1
140
1.0
141
1.0
290
     1
  0
SCALE
  5
49
102
{ACAD_REACTORS
330
47
102
}
330
47
100
AcDbScale
 70
     0
300
1:2
140
1.0
141
2.0
290
     0
  0
SCALE
  5
4A
102
{ACAD_REACTORS
330
47
102
}
330
47
100
AcDbScale
 70
     0
300
1:4
140
1.0
141
4.0
290
     0
  0
SCALE
  5
4B
102
{ACAD_REACTORS
330
47
102
}
330
47
100
AcDbScale
 70
     0
300
1:5
140
1.0
141
5.0
290
     0
  0
SCALE
  5
4C
102
{ACAD_REACTORS
330
47
102
}
330
47
100
AcDbScale
 70
     0
300
1:8
140
1.0
141
8.0
290
     0
  0
SCALE
  5
4D
102
{ACAD_REACTORS
330
47
102
}
330
47
100
AcDbScale
 70
     0
300
1:10
140
1.0
141
10.0
290
     0
  0
SCALE
  5
4E
102
{ACAD_REACTORS
330
47
102
}
330
47
100
AcDbScale
 70
     0
300
1:16
140
1.0
141
16.0
290
     0
  0
SCALE
  5
4F
102
{ACAD_REACTORS
330
47
102
}
330
47
100
AcDbScale
 70
     0
300
1:20
140
1.0
141
20.0
290
     0
  0
SCALE
  5
50
102
{ACAD_REACTORS
330
47
102
}
330
47
100
AcDbScale
 70
     0
300
1:30
140
1.0
141
30.0
290
     0
  0
SCALE
  5
51
102
{ACAD_REACTORS
330
47
102
}
330
47
100
AcDbScale
 70
     0
300
1:40
140
1.0
141
40.0
290
     0
  0
SCALE
  5
52
102
{ACAD_REACTORS
330
47
102
}
330
47
100
AcDbScale
 70
     0
300
1:50
140
1.0
141
50.0
290
     0
  0
SCALE
  5
53
102
{ACAD_REACTORS
330
47
102
}
330
47
100
AcDbScale
 70
     0
300
1:100
140
1.0
141
100.0
290
     0
  0
SCALE
  5
54
102
{ACAD_REACTORS
330
47
102
}
330
47
100
AcDbScale
 70
     0
300
2:1
140
2.0
141
1.0
290
     0
  0
SCALE
  5
55
102
{ACAD_REACTORS
330
47
102
}
330
47
100
AcDbScale
 70
     0
300
4:1
140
4.0
141
1.0
290
     0
  0
SCALE
  5
56
102
{ACAD_REACTORS
330
47
102
}
330
47
100
AcDbScale
 70
     0
300
8:1
140
8.0
141
1.0
290
     0
  0
SCALE
  5
57
102
{ACAD_REACTORS
330
47
102
}
330
47
100
AcDbScale
 70
     0
300
10:1
140
10.0
141
1.0
290
     0
  0
SCALE
  5
58
102
{ACAD_REACTORS
330
47
102
}
330
47
100
AcDbScale
 70
     0
300
100:1
140
100.0
141
1.0
290
     0
  0
SCALE
  5
59
102
{ACAD_REACTORS
330
47
102
}
330
47
100
AcDbScale
 70
     0
300
1/128" = 1'-0"
140
0.0078125
141
12.0
290
     0
  0
SCALE
  5
5A
102
{ACAD_REACTORS
330
47
102
}
330
47
100
AcDbScale
 70
     0
300
1/64" = 1'-0"
140
0.015625
141
12.0
290
     0
  0
SCALE
  5
5B
102
{ACAD_REACTORS
330
47
102
}
330
47
100
AcDbScale
 70
     0
300
1/32" = 1'-0"
140
0.03125
141
12.0
290
     0
  0
SCALE
  5
5C
102
{ACAD_REACTORS
330
47
102
}
330
47
100
AcDbScale
 70
     0
300
1/16" = 1'-0"
140
0.0625
141
12.0
290
     0
  0
SCALE
  5
5D
102
{ACAD_REACTORS
330
47
102
}
330
47
100
AcDbScale
 70
     0
300
3/32" = 1'-0"
140
0.09375
141
12.0
290
     0
  0
SCALE
  5
5E
102
{ACAD_REACTORS
330
47
102
}
330
47
100
AcDbScale
 70
     0
300
1/8" = 1'-0"
140
0.125
141
12.0
290
     0
  0
SCALE
  5
5F
102
{ACAD_REACTORS
330
47
102
}
330
47
100
AcDbScale
 70
     0
300
3/16" = 1'-0"
140
0.1875
141
12.0
290
     0
  0
SCALE
  5
60
102
{ACAD_REACTORS
330
47
102
}
330
47
100
AcDbScale
 70
     0
300
1/4" = 1'-0"
140
0.25
141
12.0
290
     0
  0
SCALE
  5
61
102
{ACAD_REACTORS
330
47
102
}
330
47
100
AcDbScale
 70
     0
300
3/8" = 1'-0"
140
0.375
141
12.0
290
     0
  0
SCALE
  5
62
102
{ACAD_REACTORS
330
47
102
}
330
47
100
AcDbScale
 70
     0
300
1/2" = 1'-0"
140
0.5
141
12.0
290
     0
  0
SCALE
  5
63
102
{ACAD_REACTORS
330
47
102
}
330
47
100
AcDbScale
 70
     0
300
3/4" = 1'-0"
140
0.75
141
12.0
290
     0
  0
SCALE
  5
64
102
{ACAD_REACTORS
330
47
102
}
330
47
100
AcDbScale
 70
     0
300
1" = 1'-0"
140
1.0
141
12.0
290
     0
  0
SCALE
  5
65
102
{ACAD_REACTORS
330
47
102
}
330
47
100
AcDbScale
 70
     0
300
1-1/2" = 1'-0"
140
1.5
141
12.0
290
     0
  0
SCALE
  5
66
102
{ACAD_REACTORS
330
47
102
}
330
47
100
AcDbScale
 70
     0
300
3" = 1'-0"
140
3.0
141
12.0
290
     0
  0
SCALE
  5
67
102
{ACAD_REACTORS
330
47
102
}
330
47
100
AcDbScale
 70
     0
300
6" = 1'-0"
140
6.0
141
12.0
290
     0
  0
SCALE
  5
68
102
{ACAD_REACTORS
330
47
102
}
330
47
100
AcDbScale
 70
     0
300
1'-0" = 1'-0"
140
12.0
141
12.0
290
     0
  0
ENDSEC
  0
EOF
