<?xml version="1.0"?>
<svg
  xmlns="http://www.w3.org/2000/svg"
  xmlns:xlink="http://www.w3.org/1999/xlink" version="1.1"
  preserveAspectRatio="xMinYMin meet"
  viewBox="-81.1261056745 -160.0000000001 162.252211349 532.4318181824002"
  width="100%" height="100%"
>
  <g stroke="#000000" stroke-width="0.1%" fill="none" transform="matrix(1,0,0,-1,0,0)">
    <g stroke="rgb(0, 0, 0)"><path d="M38.0630528373,160L38.0630528373,-147.8834919607" /></g>
<g stroke="rgb(0, 0, 0)"><path d="M38.0630528373,-149.5483262216L38.0630528373,-356.7619452012" /></g>
<g stroke="rgb(0, 0, 0)"><path d="M-38.0630528373,-356.7619452012L-38.0630528373,-149.5483262216" /></g>
<g stroke="rgb(0, 0, 0)"><path d="M-38.0630528373,-147.8834919607L-38.0630528373,160.0000000001" /></g>
<g stroke="rgb(0, 0, 0)"><path d="M35,-148.7159090911L-35,-148.7159090911" /></g>
<g stroke="rgb(0, 0, 0)"><circle cx="66.1261056745" cy="120" r="3.25" /></g>
<g stroke="rgb(0, 0, 0)"><circle cx="-66.1261056745" cy="120" r="3.25" /></g>
<g stroke="rgb(0, 0, 0)"><circle cx="0" cy="25" r="3.5" /></g>
<g stroke="rgb(0, 0, 0)"><path d="M5,-105L-5,-105" /></g>
<g stroke="rgb(0, 0, 0)"><path d="M15,-65L15,-95" /></g>
<g stroke="rgb(0, 0, 0)"><path d="M-5,-55L5,-55" /></g>
<g stroke="rgb(0, 0, 0)"><path d="M-15,-95L-15,-65" /></g>
<g stroke="rgb(0, 0, 0)"><path d="M5,55L-5,55" /></g>
<g stroke="rgb(0, 0, 0)"><path d="M15,95L15,65" /></g>
<g stroke="rgb(0, 0, 0)"><path d="M-5,105L5,105" /></g>
<g stroke="rgb(0, 0, 0)"><path d="M-15,65L-15,95" /></g>
<g stroke="rgb(0, 0, 0)"><path d="M62.159338973,-196.0852823316L75.705108681,-178.4320915535" /></g>
<g stroke="rgb(0, 0, 0)"><path d="M61.1261056745,-231.9318181823L61.1261056745,-199.1290894766" /></g>
<g stroke="rgb(0, 0, 0)"><path d="M60.1261056745,-231.9318181823L61.1261056745,-231.9318181823" /></g>
<g stroke="rgb(0, 0, 0)"><path d="M60.1261056745,-362.9318181823L60.1261056745,-231.9318181823" /></g>
<g stroke="rgb(0, 0, 0)"><path d="M61.1261056745,-362.9318181823L60.1261056745,-362.9318181823" /></g>
<g stroke="rgb(0, 0, 0)"><path d="M61.1261056745,-370.4318181823L61.1261056745,-362.9318181823" /></g>
<g stroke="rgb(0, 0, 0)"><path d="M50.5598624042,-372.4318181823L59.1261056745,-372.4318181823" /></g>
<g stroke="rgb(0, 0, 0)"><path d="M41.1261056745,-361.0920722201L46.2297353853,-369.9318181823" /></g>
<g stroke="rgb(0, 0, 0)"><path d="M35,-352.4318181823L41.1261056745,-361.0920722201" /></g>
<g stroke="rgb(0, 0, 0)"><path d="M-35,-352.4318181823L35,-352.4318181823" /></g>
<g stroke="rgb(0, 0, 0)"><path d="M-41.1261056745,-361.0920722201L-35,-352.4318181823" /></g>
<g stroke="rgb(0, 0, 0)"><path d="M-41.1261056745,-361.0920722201L-46.2297353853,-369.9318181823" /></g>
<g stroke="rgb(0, 0, 0)"><path d="M-50.5598624042,-372.4318181823L-59.1261056745,-372.4318181823" /></g>
<g stroke="rgb(0, 0, 0)"><path d="M-61.1261056745,-370.4318181823L-61.1261056745,-362.9318181823" /></g>
<g stroke="rgb(0, 0, 0)"><path d="M-61.1261056745,-362.9318181823L-60.1261056745,-362.9318181823" /></g>
<g stroke="rgb(0, 0, 0)"><path d="M-60.1261056745,-362.9318181823L-60.1261056745,-231.9318181823" /></g>
<g stroke="rgb(0, 0, 0)"><path d="M-60.1261056745,-231.9318181823L-61.1261056745,-231.9318181823" /></g>
<g stroke="rgb(0, 0, 0)"><path d="M-61.1261056745,-231.9318181823L-61.1261056745,-199.1290894766" /></g>
<g stroke="rgb(0, 0, 0)"><path d="M-62.159338973,-196.0852823316L-75.705108681,-178.4320915535" /></g>
<g stroke="rgb(0, 0, 0)"><path d="M-75.705108681,-178.4320915535L-36.9782257121,-148.7159090912" /></g>
<g stroke="rgb(0, 0, 0)"><path d="M-36.9782257121,-148.7159090912L-75.705108681,-118.9997266288" /></g>
<g stroke="rgb(0, 0, 0)"><path d="M-75.705108681,-118.9997266288L-62.159338973,-101.3465358507" /></g>
<g stroke="rgb(0, 0, 0)"><path d="M-61.1261056745,-98.3027287057L-61.1261056745,69.0192378865" /></g>
<g stroke="rgb(0, 0, 0)"><path d="M-61.7959786556,71.5192378865L-80.4562326934,103.8397459622" /></g>
<g stroke="rgb(0, 0, 0)"><path d="M-81.1261056745,133.6602540378L-81.1261056745,106.3397459622" /></g>
<g stroke="rgb(0, 0, 0)"><path d="M-80.4562326934,136.1602540378L-68.1357246177,157.5" /></g>
<g stroke="rgb(0, 0, 0)"><path d="M-63.8055975988,160L63.8055975988,160" /></g>
<g stroke="rgb(0, 0, 0)"><path d="M80.4562326934,136.1602540378L68.1357246177,157.5" /></g>
<g stroke="rgb(0, 0, 0)"><path d="M81.1261056745,133.6602540378L81.1261056745,106.3397459622" /></g>
<g stroke="rgb(0, 0, 0)"><path d="M61.7959786556,71.5192378865L80.4562326934,103.8397459622" /></g>
<g stroke="rgb(0, 0, 0)"><path d="M61.1261056745,-98.3027287057L61.1261056745,69.0192378865" /></g>
<g stroke="rgb(0, 0, 0)"><path d="M75.705108681,-118.9997266288L62.159338973,-101.3465358507" /></g>
<g stroke="rgb(0, 0, 0)"><path d="M36.9782257121,-148.7159090912L75.705108681,-118.9997266288" /></g>
<g stroke="rgb(0, 0, 0)"><path d="M75.705108681,-178.4320915535L36.9782257121,-148.7159090912" /></g>
<g stroke="rgb(0, 0, 0)"><path d="M -6.9831512837725125 -28.04230008349696 A 53.49999999999809 53.49999999999809 0 0 1 6.983151283772493 -28.04230008349697" /></g>
<g stroke="rgb(0, 0, 0)"><path d="M 6.983151283770182 -28.04230008350835 A 3.500000000000014 3.500000000000014 0 1 1 6.069467938229819 -21.10218605389165" /></g>
<g stroke="rgb(0, 0, 0)"><path d="M -6.069467938232263 -21.102186053881134 A 46.49999999999894 46.49999999999894 0 0 1 6.069467938232246 -21.10218605388114" /></g>
<g stroke="rgb(0, 0, 0)"><path d="M -6.069467938229818 -21.10218605389165 A 3.500000000000013 3.500000000000013 0 1 1 -6.983151283770183 -28.04230008350835" /></g>
<g stroke="rgb(0, 0, 0)"><path d="M -15.00000000000002 -95 A 10.00000000000002 10.00000000000002 0 0 1 -5.000000000000002 -105.00000000000001" /></g>
<g stroke="rgb(0, 0, 0)"><path d="M 4.999999999999998 -105.00000000000006 A 10.00000000000006 10.00000000000006 0 0 1 15.00000000000006 -95" /></g>
<g stroke="rgb(0, 0, 0)"><path d="M 14.999999999999993 -65 A 9.999999999999993 9.999999999999993 0 0 1 5.000000000000001 -55.00000000000001" /></g>
<g stroke="rgb(0, 0, 0)"><path d="M -4.999999999999999 -54.99999999999997 A 10.00000000000003 10.00000000000003 0 0 1 -15.00000000000003 -65" /></g>
<g stroke="rgb(0, 0, 0)"><path d="M -14.999999999999972 65 A 9.999999999999972 9.999999999999972 0 0 1 -5.000000000000002 55.00000000000003" /></g>
<g stroke="rgb(0, 0, 0)"><path d="M 4.999999999999998 55.00000000000001 A 9.999999999999993 9.999999999999993 0 0 1 14.999999999999993 65" /></g>
<g stroke="rgb(0, 0, 0)"><path d="M 14.999999999999986 95 A 9.999999999999986 9.999999999999986 0 0 1 5.000000000000001 104.99999999999999" /></g>
<g stroke="rgb(0, 0, 0)"><path d="M -4.999999999999999 104.99999999999999 A 9.999999999999986 9.999999999999986 0 0 1 -14.999999999999986 95" /></g>
<g stroke="rgb(0, 0, 0)"><path d="M 62.15933897304306 -196.08528233155582 A 5.000000000000959 5.000000000000959 0 0 1 61.12610567449904 -199.1290894766" /></g>
<g stroke="rgb(0, 0, 0)"><path d="M 59.1261056745 -372.4318181823002 A 2.000000000000227 2.000000000000227 0 0 1 61.12610567450023 -370.4318181823" /></g>
<g stroke="rgb(0, 0, 0)"><path d="M 46.22973538527775 -369.93181818230005 A 5.000000000000065 5.000000000000065 0 0 1 50.5598624042 -372.43181818230005" /></g>
<g stroke="rgb(0, 0, 0)"><path d="M -50.5598624042 -372.4318181823001 A 5.000000000000114 5.000000000000114 0 0 1 -46.229735385277706 -369.93181818230005" /></g>
<g stroke="rgb(0, 0, 0)"><path d="M -61.12610567450023 -370.4318181823 A 2.000000000000227 2.000000000000227 0 0 1 -59.1261056745 -372.4318181823002" /></g>
<g stroke="rgb(0, 0, 0)"><path d="M -61.12610567449905 -199.1290894766 A 5.000000000000947 5.000000000000947 0 0 1 -62.15933897304307 -196.08528233155582" /></g>
<g stroke="rgb(0, 0, 0)"><path d="M -62.159338973044 -101.34653585074348 A 4.999999999999775 4.999999999999775 0 0 1 -61.126105674500224 -98.3027287057" /></g>
<g stroke="rgb(0, 0, 0)"><path d="M -61.126105674499264 69.0192378865 A 5.00000000000073 5.00000000000073 0 0 1 -61.79597865557717 71.51923788650036" /></g>
<g stroke="rgb(0, 0, 0)"><path d="M -81.12610567449981 106.3397459622 A 4.999999999999821 4.999999999999821 0 0 1 -80.45623269342204 103.83974596220008" /></g>
<g stroke="rgb(0, 0, 0)"><path d="M -80.456232693422 136.1602540377999 A 4.999999999999779 4.999999999999779 0 0 1 -81.12610567449977 133.6602540378" /></g>
<g stroke="rgb(0, 0, 0)"><path d="M -63.8055975988 159.99999999999991 A 4.999999999999915 4.999999999999915 0 0 1 -68.13572461772212 157.49999999999994" /></g>
<g stroke="rgb(0, 0, 0)"><path d="M 68.13572461772212 157.49999999999994 A 4.999999999999915 4.999999999999915 0 0 1 63.8055975988 159.99999999999991" /></g>
<g stroke="rgb(0, 0, 0)"><path d="M 80.45623269342204 103.83974596220008 A 4.999999999999826 4.999999999999826 0 0 1 81.12610567449983 106.3397459622" /></g>
<g stroke="rgb(0, 0, 0)"><path d="M 61.79597865557706 71.51923788650042 A 5.000000000000862 5.000000000000862 0 0 1 61.12610567449914 69.0192378865" /></g>
<g stroke="rgb(0, 0, 0)"><path d="M 61.12610567450022 -98.3027287057 A 4.999999999999777 4.999999999999777 0 0 1 62.159338973043994 -101.34653585074346" /></g>
<g stroke="rgb(0, 0, 0)"><path d="M 81.12610567449977 133.6602540378 A 4.999999999999779 4.999999999999779 0 0 1 80.456232693422 136.1602540377999" /></g>
  </g>
</svg>